<svg width="56" height="56" viewBox="0 0 56 56" fill="none" xmlns="http://www.w3.org/2000/svg">
<mask id="mask0_356_963" style="mask-type:alpha" maskUnits="userSpaceOnUse" x="0" y="0" width="56" height="56">
<rect width="55.3182" height="55.3182" fill="#D9D9D9"/>
</mask>
<g mask="url(#mask0_356_963)">
<path d="M26.9676 41.4886C23.2797 41.2966 20.1681 39.8752 17.6327 37.2245C15.0973 34.5739 13.8296 31.3854 13.8296 27.6591C13.8296 23.8176 15.1741 20.5523 17.8632 17.8632C20.5523 15.1741 23.8176 13.8296 27.6591 13.8296C31.3854 13.8296 34.5739 15.0973 37.2245 17.6327C39.8752 20.1681 41.2966 23.2797 41.4886 26.9676L36.6483 25.527C36.1489 23.4526 35.0733 21.7527 33.4214 20.4274C31.7696 19.1021 29.8488 18.4394 27.6591 18.4394C25.1237 18.4394 22.9532 19.3422 21.1477 21.1477C19.3422 22.9532 18.4394 25.1237 18.4394 27.6591C18.4394 29.8488 19.1021 31.7696 20.4274 33.4214C21.7527 35.0733 23.4526 36.1489 25.527 36.6483L26.9676 41.4886ZM29.7335 50.5931C29.3878 50.6699 29.0421 50.7083 28.6963 50.7083H27.6591C24.4706 50.7083 21.4742 50.1033 18.6699 48.8932C15.8656 47.6831 13.4262 46.0409 11.3518 43.9664C9.27733 41.892 7.63508 39.4526 6.42499 36.6483C5.21491 33.844 4.60986 30.8476 4.60986 27.6591C4.60986 24.4706 5.21491 21.4742 6.42499 18.6699C7.63508 15.8656 9.27733 13.4262 11.3518 11.3518C13.4262 9.27733 15.8656 7.63508 18.6699 6.42499C21.4742 5.21491 24.4706 4.60986 27.6591 4.60986C30.8476 4.60986 33.844 5.21491 36.6483 6.42499C39.4526 7.63508 41.892 9.27733 43.9664 11.3518C46.0409 13.4262 47.6831 15.8656 48.8932 18.6699C50.1033 21.4742 50.7083 24.4706 50.7083 27.6591V28.6963C50.7083 29.0421 50.6699 29.3878 50.5931 29.7335L46.0985 28.3506V27.6591C46.0985 22.5114 44.3122 18.1513 40.7395 14.5787C37.1669 11.006 32.8068 9.21971 27.6591 9.21971C22.5114 9.21971 18.1513 11.006 14.5787 14.5787C11.006 18.1513 9.21971 22.5114 9.21971 27.6591C9.21971 32.8068 11.006 37.1669 14.5787 40.7395C18.1513 44.3122 22.5114 46.0985 27.6591 46.0985H28.3506L29.7335 50.5931ZM47.3086 51.8608L37.455 42.0073L34.5739 50.7083L27.6591 27.6591L50.7083 34.5739L42.0073 37.455L51.8608 47.3086L47.3086 51.8608Z" fill="#3F72AF"/>
</g>
</svg>
