<svg width="40" height="40" viewBox="0 0 40 40" fill="none" xmlns="http://www.w3.org/2000/svg">
<mask id="mask0_287_329" style="mask-type:alpha" maskUnits="userSpaceOnUse" x="0" y="0" width="40" height="40">
<rect width="40" height="40" fill="#D9D9D9"/>
</mask>
<g mask="url(#mask0_287_329)">
<path d="M19.4999 30C16.8333 29.8611 14.5833 28.8333 12.7499 26.9167C10.9166 25 9.99992 22.6945 9.99992 20C9.99992 17.2222 10.9721 14.8611 12.9166 12.9167C14.861 10.9722 17.2221 10 19.9999 10C22.6944 10 24.9999 10.9167 26.9166 12.75C28.8333 14.5833 29.861 16.8333 29.9999 19.5L26.4999 18.4583C26.1388 16.9583 25.361 15.7292 24.1666 14.7708C22.9721 13.8125 21.5833 13.3333 19.9999 13.3333C18.1666 13.3333 16.5971 13.9861 15.2916 15.2917C13.986 16.5972 13.3333 18.1667 13.3333 20C13.3333 21.5833 13.8124 22.9722 14.7708 24.1667C15.7291 25.3611 16.9583 26.1389 18.4583 26.5L19.4999 30ZM21.4999 36.5833C21.2499 36.6389 20.9999 36.6667 20.7499 36.6667H19.9999C17.6944 36.6667 15.5277 36.2292 13.4999 35.3542C11.4721 34.4792 9.70825 33.2917 8.20825 31.7917C6.70825 30.2917 5.52075 28.5278 4.64575 26.5C3.77075 24.4722 3.33325 22.3056 3.33325 20C3.33325 17.6945 3.77075 15.5278 4.64575 13.5C5.52075 11.4722 6.70825 9.70834 8.20825 8.20834C9.70825 6.70834 11.4721 5.52084 13.4999 4.64584C15.5277 3.77084 17.6944 3.33334 19.9999 3.33334C22.3055 3.33334 24.4721 3.77084 26.4999 4.64584C28.5277 5.52084 30.2916 6.70834 31.7916 8.20834C33.2916 9.70834 34.4791 11.4722 35.3541 13.5C36.2291 15.5278 36.6666 17.6945 36.6666 20V20.75C36.6666 21 36.6388 21.25 36.5833 21.5L33.3333 20.5V20C33.3333 16.2778 32.0416 13.125 29.4583 10.5417C26.8749 7.95834 23.7221 6.66668 19.9999 6.66668C16.2777 6.66668 13.1249 7.95834 10.5416 10.5417C7.95825 13.125 6.66659 16.2778 6.66659 20C6.66659 23.7222 7.95825 26.875 10.5416 29.4583C13.1249 32.0417 16.2777 33.3333 19.9999 33.3333H20.4999L21.4999 36.5833ZM34.2083 37.5L27.0833 30.375L24.9999 36.6667L19.9999 20L36.6666 25L30.3749 27.0833L37.4999 34.2083L34.2083 37.5Z" fill="#112D4E"/>
</g>
</svg>
