<svg width="40" height="40" viewBox="0 0 40 40" fill="none" xmlns="http://www.w3.org/2000/svg">
<mask id="mask0_287_326" style="mask-type:alpha" maskUnits="userSpaceOnUse" x="0" y="0" width="40" height="40">
<rect width="40" height="40" fill="#D9D9D9"/>
</mask>
<g mask="url(#mask0_287_326)">
<path d="M11.2499 35L10.8333 31.3333L15.5833 18.25C15.9999 18.6389 16.4513 18.9653 16.9374 19.2292C17.4235 19.4931 17.9444 19.6944 18.4999 19.8333L13.9166 32.4167L11.2499 35ZM28.7499 35L26.0833 32.4167L21.4999 19.8333C22.0555 19.6944 22.5763 19.4931 23.0624 19.2292C23.5485 18.9653 23.9999 18.6389 24.4166 18.25L29.1666 31.3333L28.7499 35ZM19.9999 18.3333C18.611 18.3333 17.4305 17.8472 16.4583 16.875C15.486 15.9028 14.9999 14.7222 14.9999 13.3333C14.9999 12.25 15.3124 11.2847 15.9374 10.4375C16.5624 9.59028 17.361 9 18.3333 8.66667V5H21.6666V8.66667C22.6388 9 23.4374 9.59028 24.0624 10.4375C24.6874 11.2847 24.9999 12.25 24.9999 13.3333C24.9999 14.7222 24.5138 15.9028 23.5416 16.875C22.5694 17.8472 21.3888 18.3333 19.9999 18.3333ZM19.9999 15C20.4721 15 20.868 14.8403 21.1874 14.5208C21.5069 14.2014 21.6666 13.8056 21.6666 13.3333C21.6666 12.8611 21.5069 12.4653 21.1874 12.1458C20.868 11.8264 20.4721 11.6667 19.9999 11.6667C19.5277 11.6667 19.1319 11.8264 18.8124 12.1458C18.493 12.4653 18.3333 12.8611 18.3333 13.3333C18.3333 13.8056 18.493 14.2014 18.8124 14.5208C19.1319 14.8403 19.5277 15 19.9999 15Z" fill="#112D4E"/>
</g>
</svg>
