<svg width="30" height="31" viewBox="0 0 30 31" fill="none" xmlns="http://www.w3.org/2000/svg">
<mask id="mask0_324_4941" style="mask-type:alpha" maskUnits="userSpaceOnUse" x="0" y="0" width="30" height="31">
<rect y="0.176636" width="30" height="30" fill="#D9D9D9"/>
</mask>
<g mask="url(#mask0_324_4941)">
<path d="M15 25.1766C14 24.385 12.9167 23.7704 11.75 23.3329C10.5833 22.8954 9.375 22.6766 8.125 22.6766C7.25 22.6766 6.39062 22.7912 5.54688 23.0204C4.70312 23.2496 3.89583 23.5725 3.125 23.9891C2.6875 24.2183 2.26562 24.2079 1.85938 23.9579C1.45312 23.7079 1.25 23.3433 1.25 22.8641V7.80164C1.25 7.57247 1.30729 7.35372 1.42188 7.14539C1.53646 6.93705 1.70833 6.7808 1.9375 6.67664C2.89583 6.17664 3.89583 5.80164 4.9375 5.55164C5.97917 5.30164 7.04167 5.17664 8.125 5.17664C9.33333 5.17664 10.5156 5.33289 11.6719 5.64539C12.8281 5.95789 13.9375 6.42664 15 7.05164V22.1766C16.0625 21.51 17.1771 21.01 18.3438 20.6766C19.5104 20.3433 20.6875 20.1766 21.875 20.1766C22.625 20.1766 23.3594 20.2391 24.0781 20.3641C24.7969 20.4891 25.5208 20.6766 26.25 20.9266V5.92664C26.5625 6.0308 26.8698 6.14018 27.1719 6.25476C27.474 6.36934 27.7708 6.50997 28.0625 6.67664C28.2917 6.7808 28.4635 6.93705 28.5781 7.14539C28.6927 7.35372 28.75 7.57247 28.75 7.80164V22.8641C28.75 23.3433 28.5469 23.7079 28.1406 23.9579C27.7344 24.2079 27.3125 24.2183 26.875 23.9891C26.1042 23.5725 25.2969 23.2496 24.4531 23.0204C23.6094 22.7912 22.75 22.6766 21.875 22.6766C20.625 22.6766 19.4167 22.8954 18.25 23.3329C17.0833 23.7704 16 24.385 15 25.1766ZM17.5 18.9266V7.05164L23.75 0.801636V13.3016L17.5 18.9266ZM12.5 20.9579V8.58289C11.8125 8.29122 11.099 8.06726 10.3594 7.91101C9.61979 7.75476 8.875 7.67664 8.125 7.67664C7.35417 7.67664 6.60417 7.74955 5.875 7.89539C5.14583 8.04122 4.4375 8.25997 3.75 8.55164V20.9579C4.47917 20.6871 5.20312 20.4891 5.92188 20.3641C6.64062 20.2391 7.375 20.1766 8.125 20.1766C8.875 20.1766 9.60938 20.2391 10.3281 20.3641C11.0469 20.4891 11.7708 20.6871 12.5 20.9579Z" fill="#1C1B1F"/>
</g>
</svg>
