<svg width="29" height="29" viewBox="0 0 29 29" fill="none" xmlns="http://www.w3.org/2000/svg">
<mask id="mask0_312_2476" style="mask-type:alpha" maskUnits="userSpaceOnUse" x="0" y="0" width="29" height="29">
<rect width="29" height="29" fill="#D9D9D9"/>
</mask>
<g mask="url(#mask0_312_2476)">
<path d="M3.625 27.7917V8.45837C3.625 7.79379 3.86163 7.22487 4.3349 6.7516C4.80816 6.27834 5.37708 6.04171 6.04167 6.04171H18.125C18.7896 6.04171 19.3585 6.27834 19.8318 6.7516C20.305 7.22487 20.5417 7.79379 20.5417 8.45837V27.7917L12.0833 24.1667L3.625 27.7917ZM6.04167 24.1063L12.0833 21.5084L18.125 24.1063V8.45837H6.04167V24.1063ZM22.9583 24.1667V3.62504H7.25V1.20837H22.9583C23.6229 1.20837 24.1918 1.44501 24.6651 1.91827C25.1384 2.39153 25.375 2.96046 25.375 3.62504V24.1667H22.9583Z" fill="black"/>
</g>
</svg>
