<svg width="29" height="29" viewBox="0 0 29 29" fill="none" xmlns="http://www.w3.org/2000/svg">
<mask id="mask0_220_104" style="mask-type:alpha" maskUnits="userSpaceOnUse" x="0" y="0" width="29" height="29">
<rect width="29" height="29" fill="#D9D9D9"/>
</mask>
<g mask="url(#mask0_220_104)">
<path d="M3.625 27.7918V8.4585C3.625 7.79391 3.86163 7.22499 4.3349 6.75173C4.80816 6.27846 5.37708 6.04183 6.04167 6.04183H18.125C18.7896 6.04183 19.3585 6.27846 19.8318 6.75173C20.305 7.22499 20.5417 7.79391 20.5417 8.4585V27.7918L12.0833 24.1668L3.625 27.7918ZM6.04167 24.1064L12.0833 21.5085L18.125 24.1064V8.4585H6.04167V24.1064ZM22.9583 24.1668V3.62516H7.25V1.2085H22.9583C23.6229 1.2085 24.1918 1.44513 24.6651 1.91839C25.1384 2.39166 25.375 2.96058 25.375 3.62516V24.1668H22.9583Z" fill="black"/>
</g>
</svg>
