<svg width="21" height="21" viewBox="0 0 21 21" fill="none" xmlns="http://www.w3.org/2000/svg">
<path d="M10.5 1.75C9.35093 1.75 8.21312 1.97633 7.15152 2.41605C6.08992 2.85578 5.12533 3.5003 4.31282 4.31282C3.5003 5.12533 2.85578 6.08992 2.41605 7.15152C1.97633 8.21312 1.75 9.35093 1.75 10.5C1.75 11.6491 1.97633 12.7869 2.41605 13.8485C2.85578 14.9101 3.5003 15.8747 4.31282 16.6872C5.12533 17.4997 6.08992 18.1442 7.15152 18.5839C8.21312 19.0237 9.35093 19.25 10.5 19.25C12.8206 19.25 15.0462 18.3281 16.6872 16.6872C18.3281 15.0462 19.25 12.8206 19.25 10.5C19.25 8.17936 18.3281 5.95376 16.6872 4.31282C15.0462 2.67187 12.8206 1.75 10.5 1.75ZM0.5 10.5C0.5 7.84784 1.55357 5.3043 3.42893 3.42893C5.3043 1.55357 7.84784 0.5 10.5 0.5C13.1522 0.5 15.6957 1.55357 17.5711 3.42893C19.4464 5.3043 20.5 7.84784 20.5 10.5C20.5 13.1522 19.4464 15.6957 17.5711 17.5711C15.6957 19.4464 13.1522 20.5 10.5 20.5C7.84784 20.5 5.3043 19.4464 3.42893 17.5711C1.55357 15.6957 0.5 13.1522 0.5 10.5Z" fill="black"/>
</svg>
