<svg width="56" height="56" viewBox="0 0 56 56" fill="none" xmlns="http://www.w3.org/2000/svg">
<mask id="mask0_358_1049" style="mask-type:alpha" maskUnits="userSpaceOnUse" x="0" y="0" width="56" height="56">
<rect width="55.3182" height="55.3182" fill="#D9D9D9"/>
</mask>
<g mask="url(#mask0_358_1049)">
<path d="M14.9818 46.0985C11.486 46.0985 8.49917 44.8884 6.02138 42.4683C3.54358 40.0481 2.30469 37.0901 2.30469 33.5943C2.30469 30.5979 3.20745 27.928 5.01297 25.5847C6.8185 23.2413 9.18104 21.7431 12.1006 21.0901C13.061 17.5559 14.9818 14.6939 17.8629 12.5042C20.7441 10.3146 24.0094 9.21973 27.6589 9.21973C32.1535 9.21973 35.9662 10.7852 39.097 13.916C42.2279 17.0469 43.7933 20.8596 43.7933 25.3542C46.444 25.6615 48.6433 26.8044 50.3912 28.7828C52.1391 30.7612 53.013 33.0757 53.013 35.7264C53.013 38.6075 52.0046 41.0565 49.9878 43.0733C47.971 45.0901 45.522 46.0985 42.6409 46.0985H29.9638C28.6961 46.0985 27.6108 45.6471 26.7081 44.7444C25.8053 43.8416 25.3539 42.7564 25.3539 41.4887V29.6183L21.666 33.1909L18.4392 29.964L27.6589 20.7443L36.8785 29.964L33.6517 33.1909L29.9638 29.6183V41.4887H42.6409C44.2543 41.4887 45.618 40.9316 46.7321 39.8176C47.8461 38.7035 48.4032 37.3398 48.4032 35.7264C48.4032 34.1129 47.8461 32.7492 46.7321 31.6351C45.618 30.5211 44.2543 29.964 42.6409 29.964H39.1835V25.3542C39.1835 22.1657 38.0598 19.4478 35.8125 17.2005C33.5652 14.9532 30.8473 13.8296 27.6589 13.8296C24.4704 13.8296 21.7525 14.9532 19.5052 17.2005C17.2579 19.4478 16.1342 22.1657 16.1342 25.3542H14.9818C12.7537 25.3542 10.8521 26.1417 9.27708 27.7167C7.70205 29.2918 6.91454 31.1933 6.91454 33.4214C6.91454 35.6495 7.70205 37.5511 9.27708 39.1261C10.8521 40.7011 12.7537 41.4887 14.9818 41.4887H20.7441V46.0985H14.9818Z" fill="#3F72AF"/>
</g>
</svg>
