<svg width="31" height="34" viewBox="0 0 31 34" fill="none" xmlns="http://www.w3.org/2000/svg">
<g filter="url(#filter0_d_307_1107)">
<mask id="mask0_307_1107" style="mask-type:alpha" maskUnits="userSpaceOnUse" x="1" y="0" width="29" height="29">
<rect x="1" width="29" height="29" fill="#D9D9D9"/>
</mask>
<g mask="url(#mask0_307_1107)">
<path d="M16.7083 10.875V3.625H26.375V10.875H16.7083ZM4.625 15.7083V3.625H14.2917V15.7083H4.625ZM16.7083 25.375V13.2917H26.375V25.375H16.7083ZM4.625 25.375V18.125H14.2917V25.375H4.625ZM7.04167 13.2917H11.875V6.04167H7.04167V13.2917ZM19.125 22.9583H23.9583V15.7083H19.125V22.9583ZM19.125 8.45833H23.9583V6.04167H19.125V8.45833ZM7.04167 22.9583H11.875V20.5417H7.04167V22.9583Z" fill="black"/>
</g>
</g>
<defs>
<filter id="filter0_d_307_1107" x="0.625" y="3.625" width="29.75" height="29.75" filterUnits="userSpaceOnUse" color-interpolation-filters="sRGB">
<feFlood flood-opacity="0" result="BackgroundImageFix"/>
<feColorMatrix in="SourceAlpha" type="matrix" values="0 0 0 0 0 0 0 0 0 0 0 0 0 0 0 0 0 0 127 0" result="hardAlpha"/>
<feOffset dy="4"/>
<feGaussianBlur stdDeviation="2"/>
<feComposite in2="hardAlpha" operator="out"/>
<feColorMatrix type="matrix" values="0 0 0 0 0 0 0 0 0 0 0 0 0 0 0 0 0 0 0.25 0"/>
<feBlend mode="normal" in2="BackgroundImageFix" result="effect1_dropShadow_307_1107"/>
<feBlend mode="normal" in="SourceGraphic" in2="effect1_dropShadow_307_1107" result="shape"/>
</filter>
</defs>
</svg>
