<svg width="24" height="24" viewBox="0 0 24 24" fill="none" xmlns="http://www.w3.org/2000/svg">
<mask id="mask0_314_3341" style="mask-type:alpha" maskUnits="userSpaceOnUse" x="0" y="0" width="24" height="24">
<rect width="24" height="24" fill="#D9D9D9"/>
</mask>
<g mask="url(#mask0_314_3341)">
<path d="M7 21.4918C6.45 21.4918 5.97917 21.2958 5.5875 20.9037C5.19583 20.5117 5 20.0404 5 19.4899V6.47788H4V4.47602H9V3.4751H15V4.47602H20V6.47788H19V19.4899C19 20.0404 18.8042 20.5117 18.4125 20.9037C18.0208 21.2958 17.55 21.4918 17 21.4918H7ZM17 6.47788H7V19.4899H17V6.47788ZM9 17.4881H11V8.47973H9V17.4881ZM13 17.4881H15V8.47973H13V17.4881Z" fill="white"/>
</g>
</svg>
