<svg width="30" height="31" viewBox="0 0 30 31" fill="none" xmlns="http://www.w3.org/2000/svg">
<mask id="mask0_324_4935" style="mask-type:alpha" maskUnits="userSpaceOnUse" x="0" y="0" width="30" height="31">
<rect y="0.176636" width="30" height="30" fill="#D9D9D9"/>
</mask>
<g mask="url(#mask0_324_4935)">
<path d="M6.25 23.9266H8.03125L20.25 11.7079L18.4688 9.92664L6.25 22.1454V23.9266ZM3.75 26.4266V21.1141L20.25 4.64539C20.5 4.41622 20.776 4.23914 21.0781 4.11414C21.3802 3.98914 21.6979 3.92664 22.0312 3.92664C22.3646 3.92664 22.6875 3.98914 23 4.11414C23.3125 4.23914 23.5833 4.42664 23.8125 4.67664L25.5313 6.42664C25.7813 6.6558 25.9635 6.92664 26.0781 7.23914C26.1927 7.55164 26.25 7.86414 26.25 8.17664C26.25 8.50997 26.1927 8.82768 26.0781 9.12976C25.9635 9.43184 25.7813 9.70789 25.5313 9.95789L9.0625 26.4266H3.75ZM19.3438 10.8329L18.4688 9.92664L20.25 11.7079L19.3438 10.8329Z" fill="#1C1B1F"/>
</g>
</svg>
