<svg width="42" height="42" viewBox="0 0 42 42" fill="none" xmlns="http://www.w3.org/2000/svg">
<path d="M37.7051 13.8937C37.2128 13.4016 36.5452 13.1251 35.8492 13.1251C35.1531 13.1251 34.4856 13.4016 33.9933 13.8937L20.9996 26.8874L8.00582 13.8937C7.51073 13.4155 6.84765 13.1509 6.15939 13.1569C5.47112 13.1629 4.81274 13.439 4.32604 13.9257C3.83934 14.4124 3.56328 15.0707 3.5573 15.759C3.55132 16.4473 3.8159 17.1104 4.29407 17.6054L19.1437 32.4551C19.636 32.9472 20.3035 33.2236 20.9996 33.2236C21.6956 33.2236 22.3632 32.9472 22.8554 32.4551L37.7051 17.6054C38.1972 17.1132 38.4736 16.4456 38.4736 15.7496C38.4736 15.0535 38.1972 14.386 37.7051 13.8937Z" fill="black"/>
</svg>
