<svg width="56" height="56" viewBox="0 0 56 56" fill="none" xmlns="http://www.w3.org/2000/svg">
<mask id="mask0_356_941" style="mask-type:alpha" maskUnits="userSpaceOnUse" x="0" y="0" width="56" height="56">
<rect width="55.3182" height="55.3182" fill="#D9D9D9"/>
</mask>
<g mask="url(#mask0_356_941)">
<path d="M9.21971 48.4032C7.952 48.4032 6.86677 47.9518 5.96401 47.049C5.06124 46.1463 4.60986 45.061 4.60986 43.7933V11.5244C4.60986 10.2567 5.06124 9.17146 5.96401 8.26869C6.86677 7.36593 7.952 6.91455 9.21971 6.91455H46.0985C47.3662 6.91455 48.4514 7.36593 49.3542 8.26869C50.257 9.17146 50.7083 10.2567 50.7083 11.5244V43.7933C50.7083 45.061 50.257 46.1463 49.3542 47.049C48.4514 47.9518 47.3662 48.4032 46.0985 48.4032H9.21971ZM9.21971 43.7933H46.0985V11.5244H9.21971V43.7933ZM11.5246 39.1835H23.0493V34.5736H11.5246V39.1835ZM33.5367 34.5736L44.946 23.1643L41.6615 19.8797L33.5367 28.0622L30.2521 24.7777L27.0252 28.0622L33.5367 34.5736ZM11.5246 29.9638H23.0493V25.3539H11.5246V29.9638ZM11.5246 20.7441H23.0493V16.1342H11.5246V20.7441Z" fill="#3F72AF"/>
</g>
</svg>
