<svg width="47" height="43" viewBox="0 0 47 43" fill="none" xmlns="http://www.w3.org/2000/svg">
<path d="M5.21971 42.4034C3.952 42.4034 2.86677 41.952 1.96401 41.0493C1.06124 40.1465 0.609863 39.0613 0.609863 37.7936V5.52464C0.609863 4.25693 1.06124 3.1717 1.96401 2.26894C2.86677 1.36618 3.952 0.914795 5.21971 0.914795H42.0985C43.3662 0.914795 44.4514 1.36618 45.3542 2.26894C46.257 3.1717 46.7083 4.25693 46.7083 5.52464V37.7936C46.7083 39.0613 46.257 40.1465 45.3542 41.0493C44.4514 41.952 43.3662 42.4034 42.0985 42.4034H5.21971ZM5.21971 37.7936H42.0985V5.52464H5.21971V37.7936ZM7.52464 33.1837H19.0493V28.5739H7.52464V33.1837ZM29.5367 28.5739L40.946 17.1645L37.6615 13.88L29.5367 22.0625L26.2521 18.778L23.0252 22.0625L29.5367 28.5739ZM7.52464 23.964H19.0493V19.3542H7.52464V23.964ZM7.52464 14.7443H19.0493V10.1345H7.52464V14.7443Z" fill="#3F72AF"/>
</svg>
