<svg width="249" height="24" viewBox="0 0 249 24" fill="none" xmlns="http://www.w3.org/2000/svg">
<path d="M6.408 13.6833V9.42633C6.408 9.02433 6.435 8.58033 6.489 8.09433L2.448 13.6833H6.408ZM9.981 13.6833V14.9703C9.981 15.0903 9.942 15.1953 9.864 15.2853C9.786 15.3693 9.675 15.4113 9.531 15.4113H8.343V18.5883H6.408V15.4113H0.918C0.768 15.4113 0.636 15.3663 0.522 15.2763C0.408 15.1803 0.336 15.0633 0.306 14.9253L0.072 13.8003L6.237 5.56533H8.343V13.6833H9.981ZM11.2154 17.3643C11.2154 17.1783 11.2484 17.0013 11.3144 16.8333C11.3864 16.6653 11.4824 16.5213 11.6024 16.4013C11.7224 16.2813 11.8664 16.1853 12.0344 16.1133C12.2024 16.0413 12.3824 16.0053 12.5744 16.0053C12.7664 16.0053 12.9434 16.0413 13.1054 16.1133C13.2734 16.1853 13.4174 16.2813 13.5374 16.4013C13.6634 16.5213 13.7624 16.6653 13.8344 16.8333C13.9064 17.0013 13.9424 17.1783 13.9424 17.3643C13.9424 17.5563 13.9064 17.7363 13.8344 17.9043C13.7624 18.0663 13.6634 18.2073 13.5374 18.3273C13.4174 18.4473 13.2734 18.5403 13.1054 18.6063C12.9434 18.6783 12.7664 18.7143 12.5744 18.7143C12.3824 18.7143 12.2024 18.6783 12.0344 18.6063C11.8664 18.5403 11.7224 18.4473 11.6024 18.3273C11.4824 18.2073 11.3864 18.0663 11.3144 17.9043C11.2484 17.7363 11.2154 17.5563 11.2154 17.3643ZM24.7029 12.0813C24.7029 13.2153 24.5799 14.2023 24.3339 15.0423C24.0939 15.8763 23.7579 16.5663 23.3259 17.1123C22.8999 17.6583 22.3929 18.0663 21.8049 18.3363C21.2229 18.6003 20.5929 18.7323 19.9149 18.7323C19.2369 18.7323 18.6069 18.6003 18.0249 18.3363C17.4489 18.0663 16.9479 17.6583 16.5219 17.1123C16.0959 16.5663 15.7629 15.8763 15.5229 15.0423C15.2829 14.2023 15.1629 13.2153 15.1629 12.0813C15.1629 10.9413 15.2829 9.95433 15.5229 9.12033C15.7629 8.28633 16.0959 7.59633 16.5219 7.05033C16.9479 6.50433 17.4489 6.09933 18.0249 5.83533C18.6069 5.56533 19.2369 5.43033 19.9149 5.43033C20.5929 5.43033 21.2229 5.56533 21.8049 5.83533C22.3929 6.09933 22.8999 6.50433 23.3259 7.05033C23.7579 7.59633 24.0939 8.28633 24.3339 9.12033C24.5799 9.95433 24.7029 10.9413 24.7029 12.0813ZM22.4079 12.0813C22.4079 11.1393 22.3389 10.3593 22.2009 9.74133C22.0629 9.12333 21.8769 8.63133 21.6429 8.26533C21.4149 7.89933 21.1509 7.64433 20.8509 7.50033C20.5509 7.35033 20.2389 7.27533 19.9149 7.27533C19.5969 7.27533 19.2879 7.35033 18.9879 7.50033C18.6939 7.64433 18.4329 7.89933 18.2049 8.26533C17.9769 8.63133 17.7939 9.12333 17.6559 9.74133C17.5239 10.3593 17.4579 11.1393 17.4579 12.0813C17.4579 13.0233 17.5239 13.8033 17.6559 14.4213C17.7939 15.0393 17.9769 15.5313 18.2049 15.8973C18.4329 16.2633 18.6939 16.5213 18.9879 16.6713C19.2879 16.8153 19.5969 16.8873 19.9149 16.8873C20.2389 16.8873 20.5509 16.8153 20.8509 16.6713C21.1509 16.5213 21.4149 16.2633 21.6429 15.8973C21.8769 15.5313 22.0629 15.0393 22.2009 14.4213C22.3389 13.8033 22.4079 13.0233 22.4079 12.0813Z" fill="black"/>
<path d="M51.2705 0L55.4413 7.11104L63.5405 8.8527L58.019 14.9892L58.8538 23.1767L51.2705 19.8582L43.6872 23.1767L44.522 14.9892L39.0005 8.8527L47.0997 7.11104L51.2705 0Z" fill="#FFCB45"/>
<path d="M83.9907 0L88.1615 7.11104L96.2607 8.8527L90.7392 14.9892L91.574 23.1767L83.9907 19.8582L76.4074 23.1767L77.2422 14.9892L71.7207 8.8527L79.8199 7.11104L83.9907 0Z" fill="#FFCB45"/>
<path d="M116.71 0L120.881 7.11104L128.98 8.8527L123.459 14.9892L124.294 23.1767L116.71 19.8582L109.127 23.1767L109.962 14.9892L104.44 8.8527L112.54 7.11104L116.71 0Z" fill="#FFCB45"/>
<path d="M149.431 0L153.601 7.11104L161.701 8.8527L156.179 14.9892L157.014 23.1767L149.431 19.8582L141.847 23.1767L142.682 14.9892L137.161 8.8527L145.26 7.11104L149.431 0Z" fill="#FFCB45"/>
<path d="M182.15 0L186.321 7.11104L194.42 8.8527L188.898 14.9892L189.733 23.1767L182.15 19.8582L174.567 23.1767L175.401 14.9892L169.88 8.8527L177.979 7.11104L182.15 0Z" fill="#F2F2F2"/>
<path d="M215.372 17.3683C215.457 17.3683 215.524 17.395 215.572 17.4483C215.62 17.4963 215.644 17.5603 215.644 17.6403V18.0883H208.34V17.8163C208.34 17.7577 208.353 17.699 208.38 17.6403C208.412 17.5763 208.452 17.523 208.5 17.4803L212.364 13.5683C212.684 13.243 212.98 12.9283 213.252 12.6243C213.524 12.3203 213.759 12.0137 213.956 11.7043C214.159 11.395 214.316 11.0777 214.428 10.7523C214.54 10.427 214.596 10.0803 214.596 9.71233C214.596 9.29633 214.527 8.93633 214.388 8.63233C214.249 8.323 214.065 8.06967 213.836 7.87233C213.607 7.675 213.34 7.52833 213.036 7.43233C212.732 7.33633 212.417 7.28833 212.092 7.28833C211.735 7.28833 211.404 7.34433 211.1 7.45633C210.801 7.563 210.535 7.715 210.3 7.91233C210.071 8.10433 209.879 8.33633 209.724 8.60833C209.575 8.875 209.471 9.16833 209.412 9.48833C209.375 9.60567 209.324 9.683 209.26 9.72033C209.201 9.75767 209.119 9.771 209.012 9.76033L208.62 9.69633C208.689 9.211 208.823 8.779 209.02 8.40033C209.217 8.02167 209.468 7.70167 209.772 7.44033C210.076 7.179 210.428 6.98167 210.828 6.84833C211.228 6.70967 211.66 6.64033 212.124 6.64033C212.556 6.64033 212.967 6.70433 213.356 6.83233C213.751 6.955 214.097 7.14433 214.396 7.40033C214.7 7.651 214.94 7.96833 215.116 8.35233C215.292 8.731 215.38 9.17633 215.38 9.68833C215.38 10.115 215.313 10.5123 215.18 10.8803C215.052 11.243 214.876 11.5923 214.652 11.9283C214.428 12.2643 214.167 12.5923 213.868 12.9123C213.575 13.227 213.265 13.5497 212.94 13.8803L209.396 17.4963C209.567 17.4537 209.743 17.4217 209.924 17.4003C210.111 17.379 210.297 17.3683 210.484 17.3683H215.372ZM217.829 17.4723C217.829 17.371 217.848 17.275 217.885 17.1843C217.923 17.0937 217.973 17.0163 218.037 16.9523C218.107 16.883 218.184 16.8297 218.269 16.7923C218.36 16.7497 218.459 16.7283 218.565 16.7283C218.667 16.7283 218.763 16.7497 218.853 16.7923C218.944 16.8297 219.021 16.883 219.085 16.9523C219.155 17.0163 219.208 17.0937 219.245 17.1843C219.288 17.275 219.309 17.371 219.309 17.4723C219.309 17.579 219.288 17.6777 219.245 17.7683C219.208 17.8537 219.155 17.931 219.085 18.0003C219.021 18.0643 218.944 18.115 218.853 18.1523C218.763 18.1897 218.667 18.2083 218.565 18.2083C218.357 18.2083 218.181 18.139 218.037 18.0003C217.899 17.8563 217.829 17.6803 217.829 17.4723ZM224.908 12.6803C225.361 12.6803 225.766 12.603 226.124 12.4483C226.481 12.2937 226.78 12.091 227.02 11.8403C227.265 11.5897 227.452 11.3097 227.58 11.0003C227.708 10.6857 227.772 10.3683 227.772 10.0483C227.772 9.63767 227.705 9.26167 227.572 8.92033C227.438 8.579 227.252 8.28833 227.012 8.04833C226.772 7.803 226.486 7.61367 226.156 7.48033C225.83 7.34167 225.473 7.27233 225.084 7.27233C224.662 7.27233 224.278 7.339 223.932 7.47233C223.585 7.60567 223.286 7.79233 223.036 8.03233C222.79 8.27233 222.598 8.56033 222.46 8.89633C222.321 9.227 222.252 9.59233 222.252 9.99233C222.252 10.4083 222.313 10.7843 222.436 11.1203C222.564 11.451 222.742 11.7337 222.972 11.9683C223.206 12.1977 223.486 12.3737 223.812 12.4963C224.142 12.619 224.508 12.6803 224.908 12.6803ZM226.42 13.4163C226.58 13.187 226.729 12.9737 226.868 12.7763C227.006 12.5737 227.132 12.3763 227.244 12.1843C226.934 12.531 226.558 12.8003 226.116 12.9923C225.673 13.179 225.201 13.2723 224.7 13.2723C224.236 13.2723 223.806 13.1977 223.412 13.0483C223.022 12.8937 222.684 12.675 222.396 12.3923C222.108 12.1097 221.884 11.771 221.724 11.3763C221.564 10.9763 221.484 10.531 221.484 10.0403C221.484 9.555 221.574 9.107 221.756 8.69633C221.937 8.28033 222.188 7.92033 222.508 7.61633C222.828 7.31233 223.206 7.075 223.644 6.90433C224.086 6.72833 224.569 6.64033 225.092 6.64033C225.593 6.64033 226.052 6.72567 226.468 6.89633C226.889 7.067 227.249 7.30967 227.548 7.62433C227.852 7.93367 228.086 8.307 228.252 8.74433C228.422 9.17633 228.508 9.659 228.508 10.1923C228.508 10.4857 228.476 10.7657 228.412 11.0323C228.353 11.299 228.262 11.5657 228.14 11.8323C228.022 12.099 227.878 12.3737 227.708 12.6563C227.537 12.9337 227.342 13.2323 227.124 13.5523L224.156 17.9043C224.076 18.027 223.945 18.0883 223.764 18.0883H223.068L226.42 13.4163ZM234.357 17.6083C234.789 17.6083 235.181 17.5497 235.533 17.4323C235.89 17.3097 236.197 17.139 236.453 16.9203C236.709 16.6963 236.906 16.4297 237.045 16.1203C237.183 15.811 237.253 15.467 237.253 15.0883C237.253 14.5923 237.162 14.179 236.981 13.8483C236.799 13.5177 236.567 13.2537 236.285 13.0563C236.002 12.859 235.69 12.7203 235.349 12.6403C235.007 12.555 234.677 12.5123 234.357 12.5123C234.037 12.5123 233.706 12.555 233.365 12.6403C233.023 12.7203 232.711 12.859 232.429 13.0563C232.146 13.2537 231.914 13.5177 231.733 13.8483C231.551 14.179 231.461 14.5923 231.461 15.0883C231.461 15.467 231.53 15.811 231.669 16.1203C231.807 16.4297 232.002 16.6963 232.253 16.9203C232.509 17.139 232.815 17.3097 233.173 17.4323C233.53 17.5497 233.925 17.6083 234.357 17.6083ZM231.829 9.53633C231.829 9.84033 231.877 10.1337 231.973 10.4163C232.074 10.699 232.229 10.9523 232.437 11.1763C232.645 11.395 232.906 11.571 233.221 11.7043C233.541 11.8323 233.919 11.8963 234.357 11.8963C234.789 11.8963 235.162 11.8323 235.477 11.7043C235.797 11.571 236.061 11.395 236.269 11.1763C236.477 10.9523 236.629 10.699 236.725 10.4163C236.826 10.1337 236.877 9.84033 236.877 9.53633C236.877 9.211 236.821 8.90967 236.709 8.63233C236.597 8.34967 236.431 8.10433 236.213 7.89633C235.999 7.68833 235.735 7.52567 235.421 7.40833C235.111 7.291 234.757 7.23233 234.357 7.23233C233.957 7.23233 233.599 7.291 233.285 7.40833C232.97 7.52567 232.703 7.68833 232.485 7.89633C232.271 8.10433 232.109 8.34967 231.997 8.63233C231.885 8.90967 231.829 9.211 231.829 9.53633ZM235.565 12.1763C235.927 12.2563 236.258 12.3763 236.557 12.5363C236.861 12.6963 237.122 12.8963 237.341 13.1363C237.559 13.3763 237.73 13.659 237.853 13.9843C237.975 14.3097 238.037 14.6803 238.037 15.0963C238.037 15.5763 237.946 16.0083 237.765 16.3923C237.583 16.7763 237.33 17.1043 237.005 17.3763C236.685 17.6483 236.298 17.8563 235.845 18.0003C235.397 18.1443 234.901 18.2163 234.357 18.2163C233.813 18.2163 233.314 18.1443 232.861 18.0003C232.413 17.8563 232.026 17.6483 231.701 17.3763C231.381 17.1043 231.13 16.7763 230.949 16.3923C230.767 16.0083 230.677 15.5763 230.677 15.0963C230.677 14.6803 230.738 14.3097 230.861 13.9843C230.983 13.659 231.151 13.3763 231.365 13.1363C231.583 12.8963 231.842 12.6963 232.141 12.5363C232.445 12.3763 232.778 12.2563 233.141 12.1763C232.81 12.0803 232.517 11.9497 232.261 11.7843C232.005 11.619 231.789 11.4217 231.613 11.1923C231.442 10.963 231.311 10.7097 231.221 10.4323C231.13 10.1497 231.085 9.84833 231.085 9.52833C231.085 9.12833 231.159 8.75233 231.309 8.40033C231.463 8.04833 231.682 7.74167 231.965 7.48033C232.247 7.219 232.589 7.01367 232.989 6.86433C233.394 6.715 233.85 6.64033 234.357 6.64033C234.858 6.64033 235.309 6.715 235.709 6.86433C236.114 7.01367 236.458 7.219 236.741 7.48033C237.029 7.74167 237.247 8.04833 237.397 8.40033C237.551 8.75233 237.629 9.12833 237.629 9.52833C237.629 9.84833 237.583 10.1497 237.493 10.4323C237.402 10.7097 237.269 10.963 237.093 11.1923C236.917 11.4163 236.701 11.6137 236.445 11.7843C236.189 11.9497 235.895 12.0803 235.565 12.1763ZM246.974 17.4963V18.0883H241.134V17.4963H243.734V8.31233C243.734 8.131 243.742 7.939 243.758 7.73633L241.262 9.95233C241.187 10.0163 241.113 10.0403 241.038 10.0243C240.963 10.0083 240.905 9.97633 240.862 9.92833L240.63 9.60833L243.902 6.72033H244.502V17.4963H246.974Z" fill="black"/>
</svg>
