<svg width="784" height="568" viewBox="0 0 784 568" fill="none" xmlns="http://www.w3.org/2000/svg">
<g clip-path="url(#clip0_287_180)">
<path d="M782.867 562.762H1.13295C0.832471 562.762 0.544301 562.643 0.331832 562.43C0.119363 562.218 0 561.93 0 561.629C0 561.329 0.119363 561.041 0.331832 560.828C0.544301 560.616 0.832471 560.496 1.13295 560.496H782.867C783.167 560.496 783.456 560.616 783.668 560.828C783.881 561.041 784 561.329 784 561.629C784 561.93 783.881 562.218 783.668 562.43C783.456 562.643 783.167 562.762 782.867 562.762Z" fill="#919191"/>
<path d="M705.492 365.174H245.515C243.562 365.174 241.689 365.95 240.308 367.331C238.927 368.712 238.151 370.585 238.151 372.538C238.151 374.491 238.927 376.364 240.308 377.746C241.689 379.127 243.562 379.902 245.515 379.902H258.544V556.076C258.544 558.029 259.32 559.902 260.701 561.283C262.082 562.664 263.955 563.44 265.908 563.44C267.861 563.44 269.734 562.664 271.115 561.283C272.496 559.902 273.272 558.029 273.272 556.076L273.384 379.902H676.602V556.076C676.602 558.029 677.377 559.902 678.758 561.283C680.139 562.664 682.013 563.44 683.966 563.44C685.919 563.44 687.792 562.664 689.173 561.283C690.554 559.902 691.33 558.029 691.33 556.076V383.785L693.472 379.902H705.492C707.445 379.902 709.318 379.127 710.699 377.746C712.08 376.364 712.856 374.491 712.856 372.538C712.856 370.585 712.08 368.712 710.699 367.331C709.318 365.95 707.445 365.174 705.492 365.174Z" fill="#919191"/>
<path d="M500.53 369.028H361.198C358.5 369.025 355.913 367.952 354.006 366.044C352.098 364.137 351.025 361.55 351.022 358.852V282.141C351.025 279.443 352.098 276.857 354.006 274.949C355.913 273.042 358.5 271.968 361.198 271.965H500.53C503.228 271.968 505.814 273.042 507.722 274.949C509.629 276.857 510.703 279.443 510.706 282.141V358.852C510.703 361.55 509.629 364.137 507.722 366.044C505.814 367.952 503.228 369.025 500.53 369.028Z" fill="#3F3D56"/>
<path d="M500.529 279.797H361.199C360.577 279.798 359.981 280.046 359.542 280.485C359.102 280.925 358.855 281.521 358.854 282.142V358.854C358.855 359.476 359.102 360.071 359.542 360.511C359.981 360.951 360.577 361.198 361.199 361.199H500.529C501.151 361.198 501.746 360.951 502.186 360.511C502.625 360.071 502.873 359.476 502.874 358.854V282.142C502.873 281.521 502.625 280.925 502.186 280.485C501.746 280.046 501.151 279.798 500.529 279.797Z" fill="#EEE5E9"/>
<path d="M442.747 334.109C442.747 334.109 426.068 330.265 416.894 337.311C407.72 344.358 428.57 360.372 428.57 360.372L442.747 334.109Z" fill="#2F2E41"/>
<path d="M431.681 326.846C440.37 326.846 447.414 319.802 447.414 311.113C447.414 302.424 440.37 295.38 431.681 295.38C422.991 295.38 415.947 302.424 415.947 311.113C415.947 319.802 422.991 326.846 431.681 326.846Z" fill="#A0616A"/>
<path d="M419.514 289.027C420.563 287.247 422.084 285.79 423.909 284.82C425.734 283.849 427.791 283.401 429.854 283.526C432.012 283.797 434.118 284.386 436.103 285.275L446.388 289.287C449.049 290.325 451.964 291.597 453.119 294.21C454.191 296.635 453.391 299.436 452.582 301.961L448.734 313.962C448.308 311.246 447.576 308.587 446.553 306.034C445.514 303.465 443.635 301.323 441.223 299.957C438.552 298.587 435.403 298.615 432.404 298.759C428.156 298.964 423.538 299.504 420.52 302.5C418.918 304.202 417.832 306.323 417.388 308.617C416.951 310.9 416.731 313.218 416.731 315.542C414.989 312.547 413.522 309.402 412.347 306.143C411.381 303.717 410.83 301.145 410.718 298.536C410.617 295.904 411.49 293.328 413.171 291.3C414.024 290.309 415.136 289.576 416.384 289.183C417.631 288.79 418.963 288.754 420.23 289.078L419.514 289.027Z" fill="#2F2E41"/>
<path d="M469.248 347.751C469.1 347.22 468.799 346.744 468.381 346.383C467.964 346.022 467.45 345.793 466.903 345.723C466.866 345.698 466.829 345.675 466.789 345.655L443.302 332.493C442.631 332.117 441.841 332.014 441.097 332.206C440.352 332.397 439.71 332.869 439.304 333.521L432.881 343.922L423.205 334.247L423.051 334.093C422.555 333.596 421.899 333.291 421.2 333.229C420.5 333.168 419.801 333.355 419.226 333.758L399.923 347.276C399.889 347.276 399.855 347.287 399.821 347.287C398.897 347.441 398.053 347.905 397.429 348.604C396.805 349.302 396.438 350.192 396.388 351.128L395.889 361.199H472.975L469.248 347.751Z" fill="#3F72AF"/>
<path d="M512.271 359.635H497.399C497.399 359.22 497.234 358.822 496.94 358.528C496.646 358.234 496.248 358.069 495.833 358.069H491.136C490.721 358.069 490.323 358.234 490.029 358.528C489.736 358.822 489.571 359.22 489.571 359.635H484.874C484.874 359.22 484.709 358.822 484.416 358.528C484.122 358.234 483.724 358.069 483.309 358.069H478.612C478.197 358.069 477.799 358.234 477.505 358.528C477.212 358.822 477.047 359.22 477.047 359.635H472.35C472.35 359.22 472.185 358.822 471.892 358.528C471.598 358.234 471.2 358.069 470.785 358.069H466.088C465.673 358.069 465.275 358.234 464.981 358.528C464.687 358.822 464.523 359.22 464.523 359.635H459.826C459.826 359.22 459.661 358.822 459.367 358.528C459.074 358.234 458.676 358.069 458.26 358.069H453.564C453.149 358.069 452.75 358.234 452.457 358.528C452.163 358.822 451.998 359.22 451.998 359.635H447.302C447.302 359.22 447.137 358.822 446.843 358.528C446.55 358.234 446.151 358.069 445.736 358.069H441.04C440.624 358.069 440.226 358.234 439.933 358.528C439.639 358.822 439.474 359.22 439.474 359.635H434.777C434.777 359.22 434.612 358.822 434.319 358.528C434.025 358.234 433.627 358.069 433.212 358.069H428.515C428.1 358.069 427.702 358.234 427.408 358.528C427.115 358.822 426.95 359.22 426.95 359.635H422.253C422.253 359.22 422.088 358.822 421.795 358.528C421.501 358.234 421.103 358.069 420.688 358.069H415.991C415.576 358.069 415.178 358.234 414.884 358.528C414.591 358.822 414.426 359.22 414.426 359.635H409.729C409.729 359.22 409.564 358.822 409.27 358.528C408.977 358.234 408.579 358.069 408.163 358.069H403.467C403.052 358.069 402.653 358.234 402.36 358.528C402.066 358.822 401.901 359.22 401.901 359.635H397.205C397.205 359.22 397.04 358.822 396.746 358.528C396.453 358.234 396.054 358.069 395.639 358.069H390.943C390.527 358.069 390.129 358.234 389.836 358.528C389.542 358.822 389.377 359.22 389.377 359.635H384.681C384.681 359.22 384.516 358.822 384.222 358.528C383.928 358.234 383.53 358.069 383.115 358.069H378.418C378.003 358.069 377.605 358.234 377.311 358.528C377.018 358.822 376.853 359.22 376.853 359.635H372.156C372.156 359.22 371.991 358.822 371.698 358.528C371.404 358.234 371.006 358.069 370.591 358.069H365.894C365.479 358.069 365.081 358.234 364.787 358.528C364.494 358.822 364.329 359.22 364.329 359.635H349.456C348.212 359.637 347.019 360.133 346.14 361.013C345.261 361.894 344.767 363.087 344.767 364.332C344.767 365.576 345.261 366.769 346.14 367.65C347.019 368.531 348.212 369.026 349.456 369.028H512.271C513.517 369.028 514.711 368.533 515.592 367.653C516.473 366.772 516.968 365.577 516.968 364.332C516.968 363.086 516.473 361.891 515.592 361.011C514.711 360.13 513.517 359.635 512.271 359.635Z" fill="#3F3D56"/>
<path d="M325.246 332.36V363.546H247.115C245.022 363.619 242.935 363.269 240.98 362.518C239.025 361.768 237.24 360.631 235.734 359.176C234.227 357.721 233.029 355.977 232.211 354.049C231.392 352.121 230.97 350.048 230.97 347.953C230.97 345.859 231.392 343.785 232.211 341.857C233.029 339.929 234.227 338.186 235.734 336.731C237.24 335.276 239.025 334.139 240.98 333.388C242.935 332.637 245.022 332.288 247.115 332.36H325.246Z" fill="#EEE5E9"/>
<path d="M327.165 363.306C327.165 363.624 327.038 363.929 326.813 364.154C326.589 364.379 326.283 364.505 325.965 364.505H245.723C241.365 364.505 237.186 362.774 234.104 359.692C231.023 356.611 229.291 352.431 229.291 348.073C229.291 343.715 231.023 339.535 234.104 336.454C237.186 333.372 241.365 331.641 245.723 331.641H325.965C326.284 331.641 326.589 331.767 326.814 331.992C327.038 332.217 327.165 332.522 327.165 332.84C327.165 333.158 327.038 333.463 326.814 333.688C326.589 333.913 326.284 334.04 325.965 334.04H245.723C242.004 334.043 238.438 335.523 235.809 338.154C233.18 340.786 231.703 344.353 231.703 348.073C231.703 351.793 233.18 355.36 235.809 357.992C238.438 360.623 242.004 362.103 245.723 362.106H325.965C326.283 362.106 326.588 362.233 326.813 362.458C327.038 362.683 327.165 362.988 327.165 363.306Z" fill="#3F72AF"/>
<path d="M325.246 339.557H241.285C241.254 339.557 241.222 339.551 241.193 339.539C241.164 339.527 241.137 339.51 241.115 339.487C241.092 339.465 241.075 339.439 241.062 339.409C241.05 339.38 241.044 339.349 241.044 339.317C241.044 339.286 241.05 339.254 241.062 339.225C241.075 339.196 241.092 339.169 241.115 339.147C241.137 339.125 241.164 339.107 241.193 339.095C241.222 339.083 241.254 339.077 241.285 339.077H325.246C325.309 339.078 325.37 339.103 325.414 339.148C325.459 339.193 325.484 339.254 325.484 339.317C325.484 339.38 325.459 339.441 325.414 339.486C325.37 339.531 325.309 339.557 325.246 339.557Z" fill="#919191"/>
<path d="M325.246 345.314H241.285C241.254 345.315 241.222 345.308 241.193 345.297C241.164 345.285 241.137 345.267 241.115 345.245C241.092 345.222 241.075 345.196 241.062 345.167C241.05 345.137 241.044 345.106 241.044 345.074C241.044 345.043 241.05 345.011 241.062 344.982C241.075 344.953 241.092 344.927 241.115 344.904C241.137 344.882 241.164 344.864 241.193 344.852C241.222 344.84 241.254 344.834 241.285 344.835H325.246C325.309 344.835 325.37 344.86 325.414 344.905C325.459 344.95 325.484 345.011 325.484 345.074C325.484 345.138 325.459 345.199 325.414 345.243C325.37 345.288 325.309 345.314 325.246 345.314Z" fill="#919191"/>
<path d="M325.246 351.072H241.285C241.254 351.072 241.222 351.066 241.193 351.054C241.164 351.042 241.137 351.024 241.115 351.002C241.092 350.98 241.075 350.953 241.062 350.924C241.05 350.895 241.044 350.863 241.044 350.832C241.044 350.8 241.05 350.769 241.062 350.74C241.075 350.71 241.092 350.684 241.115 350.662C241.137 350.639 241.164 350.622 241.193 350.61C241.222 350.598 241.254 350.592 241.285 350.592H325.246C325.309 350.592 325.37 350.618 325.414 350.663C325.459 350.708 325.484 350.768 325.484 350.832C325.484 350.895 325.459 350.956 325.414 351.001C325.37 351.046 325.309 351.071 325.246 351.072Z" fill="#919191"/>
<path d="M325.246 356.829H241.285C241.254 356.829 241.222 356.823 241.193 356.811C241.164 356.799 241.137 356.781 241.115 356.759C241.092 356.737 241.075 356.71 241.062 356.681C241.05 356.652 241.044 356.621 241.044 356.589C241.044 356.557 241.05 356.526 241.062 356.497C241.075 356.468 241.092 356.441 241.115 356.419C241.137 356.396 241.164 356.379 241.193 356.367C241.222 356.355 241.254 356.349 241.285 356.349H325.246C325.309 356.349 325.37 356.375 325.414 356.42C325.459 356.465 325.484 356.526 325.484 356.589C325.484 356.652 325.459 356.713 325.414 356.758C325.37 356.803 325.309 356.828 325.246 356.829Z" fill="#919191"/>
<path d="M310.517 299.505V330.69H232.387C230.293 330.763 228.207 330.414 226.251 329.663C224.296 328.912 222.512 327.775 221.005 326.32C219.499 324.865 218.3 323.121 217.482 321.193C216.664 319.265 216.242 317.192 216.242 315.098C216.242 313.003 216.664 310.93 217.482 309.002C218.3 307.074 219.499 305.33 221.005 303.875C222.512 302.42 224.296 301.283 226.251 300.532C228.207 299.782 230.293 299.432 232.387 299.505H310.517Z" fill="#EEE5E9"/>
<path d="M312.437 330.45C312.436 330.768 312.31 331.073 312.085 331.298C311.86 331.523 311.555 331.65 311.237 331.65H230.995C228.837 331.65 226.701 331.225 224.707 330.399C222.713 329.573 220.902 328.363 219.376 326.837C217.85 325.311 216.64 323.5 215.814 321.506C214.988 319.512 214.563 317.375 214.563 315.218C214.563 313.06 214.988 310.923 215.814 308.929C216.64 306.936 217.85 305.124 219.376 303.598C220.902 302.072 222.713 300.862 224.707 300.036C226.701 299.21 228.837 298.785 230.995 298.785H311.237C311.555 298.785 311.86 298.912 312.085 299.137C312.31 299.362 312.437 299.667 312.437 299.985C312.437 300.303 312.31 300.608 312.085 300.833C311.86 301.058 311.555 301.184 311.237 301.184H230.995C227.276 301.188 223.709 302.668 221.08 305.299C218.451 307.93 216.974 311.498 216.974 315.218C216.974 318.937 218.451 322.505 221.08 325.136C223.709 327.768 227.276 329.248 230.995 329.251H311.237C311.555 329.251 311.86 329.377 312.085 329.602C312.31 329.827 312.436 330.132 312.437 330.45Z" fill="#3F3D56"/>
<path d="M310.517 306.702H226.557C226.526 306.702 226.494 306.696 226.465 306.684C226.436 306.672 226.409 306.654 226.387 306.632C226.364 306.61 226.346 306.583 226.334 306.554C226.322 306.525 226.316 306.493 226.316 306.462C226.316 306.43 226.322 306.399 226.334 306.369C226.346 306.34 226.364 306.314 226.387 306.291C226.409 306.269 226.436 306.252 226.465 306.24C226.494 306.228 226.526 306.222 226.557 306.222H310.517C310.581 306.222 310.641 306.248 310.686 306.293C310.731 306.338 310.756 306.398 310.756 306.462C310.756 306.525 310.731 306.586 310.686 306.631C310.641 306.676 310.581 306.701 310.517 306.702Z" fill="#919191"/>
<path d="M310.517 312.459H226.557C226.526 312.459 226.494 312.453 226.465 312.441C226.436 312.429 226.409 312.411 226.387 312.389C226.364 312.367 226.346 312.34 226.334 312.311C226.322 312.282 226.316 312.251 226.316 312.219C226.316 312.187 226.322 312.156 226.334 312.127C226.346 312.098 226.364 312.071 226.387 312.049C226.409 312.026 226.436 312.009 226.465 311.997C226.494 311.985 226.526 311.979 226.557 311.979H310.517C310.581 311.98 310.641 312.005 310.686 312.05C310.731 312.095 310.756 312.156 310.756 312.219C310.756 312.282 310.731 312.343 310.686 312.388C310.641 312.433 310.581 312.458 310.517 312.459Z" fill="#919191"/>
<path d="M310.517 318.216H226.557C226.526 318.216 226.494 318.21 226.465 318.198C226.436 318.186 226.409 318.169 226.387 318.146C226.364 318.124 226.346 318.098 226.334 318.068C226.322 318.039 226.316 318.008 226.316 317.976C226.316 317.945 226.322 317.913 226.334 317.884C226.346 317.855 226.364 317.828 226.387 317.806C226.409 317.784 226.436 317.766 226.465 317.754C226.494 317.742 226.526 317.736 226.557 317.736H310.517C310.581 317.737 310.641 317.762 310.686 317.807C310.731 317.852 310.756 317.913 310.756 317.976C310.756 318.04 310.731 318.1 310.686 318.145C310.641 318.19 310.581 318.216 310.517 318.216Z" fill="#919191"/>
<path d="M310.517 323.973H226.557C226.526 323.974 226.494 323.968 226.465 323.956C226.436 323.944 226.409 323.926 226.387 323.904C226.364 323.881 226.346 323.855 226.334 323.826C226.322 323.796 226.316 323.765 226.316 323.733C226.316 323.702 226.322 323.671 226.334 323.641C226.346 323.612 226.364 323.586 226.387 323.563C226.409 323.541 226.436 323.523 226.465 323.511C226.494 323.499 226.526 323.493 226.557 323.494H310.517C310.581 323.494 310.641 323.519 310.686 323.564C310.731 323.609 310.756 323.67 310.756 323.733C310.756 323.797 310.731 323.858 310.686 323.903C310.641 323.947 310.581 323.973 310.517 323.973Z" fill="#919191"/>
<path d="M401.407 474.392V447.202C401.407 446 400.929 444.847 400.08 443.997C399.23 443.147 398.077 442.67 396.875 442.67H293.777C292.575 442.67 291.422 443.147 290.572 443.997C289.723 444.847 289.245 446 289.245 447.202V474.392H401.407Z" fill="#919191"/>
<path d="M401.407 484.589H289.245V519.71H401.407V484.589Z" fill="#919191"/>
<path d="M289.245 529.907V557.097C289.245 558.299 289.723 559.452 290.572 560.302C291.422 561.152 292.575 561.629 293.777 561.629H396.875C398.077 561.629 399.23 561.152 400.08 560.302C400.929 559.452 401.407 558.299 401.407 557.097V529.907H289.245Z" fill="#919191"/>
<path d="M344.76 463.063C346.637 463.063 348.159 461.541 348.159 459.664C348.159 457.787 346.637 456.265 344.76 456.265C342.883 456.265 341.361 457.787 341.361 459.664C341.361 461.541 342.883 463.063 344.76 463.063Z" fill="#EEE5E9"/>
<path d="M344.76 508.381C346.637 508.381 348.159 506.859 348.159 504.982C348.159 503.105 346.637 501.583 344.76 501.583C342.883 501.583 341.361 503.105 341.361 504.982C341.361 506.859 342.883 508.381 344.76 508.381Z" fill="#EEE5E9"/>
<path d="M344.942 552.739C346.819 552.739 348.341 551.217 348.341 549.34C348.341 547.463 346.819 545.941 344.942 545.941C343.065 545.941 341.543 547.463 341.543 549.34C341.543 551.217 343.065 552.739 344.942 552.739Z" fill="#EEE5E9"/>
<path d="M388.691 411.667V442.852H310.56C308.467 442.925 306.38 442.576 304.425 441.825C302.47 441.074 300.685 439.937 299.179 438.482C297.672 437.027 296.474 435.283 295.656 433.355C294.837 431.427 294.416 429.354 294.416 427.259C294.416 425.165 294.837 423.092 295.656 421.164C296.474 419.236 297.672 417.492 299.179 416.037C300.685 414.582 302.47 413.445 304.425 412.694C306.38 411.943 308.467 411.594 310.56 411.667H388.691Z" fill="#EEE5E9"/>
<path d="M390.61 442.612C390.61 442.93 390.483 443.235 390.258 443.46C390.034 443.685 389.728 443.811 389.41 443.812H309.169C307.009 443.813 304.871 443.39 302.876 442.565C300.881 441.74 299.068 440.53 297.54 439.004C296.013 437.477 294.801 435.665 293.975 433.671C293.148 431.676 292.723 429.538 292.723 427.379C292.723 425.22 293.148 423.082 293.975 421.088C294.801 419.093 296.013 417.281 297.54 415.755C299.068 414.229 300.881 413.019 302.876 412.194C304.871 411.369 307.009 410.945 309.169 410.947H389.41C389.729 410.947 390.034 411.074 390.259 411.298C390.483 411.523 390.61 411.828 390.61 412.147C390.61 412.465 390.483 412.77 390.259 412.995C390.034 413.22 389.729 413.346 389.41 413.346H309.169C305.449 413.349 301.883 414.829 299.254 417.461C296.625 420.092 295.148 423.66 295.148 427.379C295.148 431.099 296.625 434.667 299.254 437.298C301.883 439.929 305.449 441.409 309.169 441.413H389.41C389.728 441.413 390.033 441.539 390.258 441.764C390.483 441.989 390.61 442.294 390.61 442.612Z" fill="#3F3D56"/>
<path d="M388.691 418.863H304.731C304.699 418.864 304.668 418.858 304.638 418.846C304.609 418.834 304.582 418.816 304.56 418.794C304.537 418.771 304.52 418.745 304.507 418.716C304.495 418.686 304.489 418.655 304.489 418.623C304.489 418.592 304.495 418.561 304.507 418.531C304.52 418.502 304.537 418.476 304.56 418.453C304.582 418.431 304.609 418.413 304.638 418.401C304.668 418.389 304.699 418.383 304.731 418.384H388.691C388.754 418.384 388.815 418.41 388.859 418.454C388.904 418.499 388.929 418.56 388.929 418.623C388.929 418.687 388.904 418.748 388.859 418.793C388.815 418.838 388.754 418.863 388.691 418.863Z" fill="#919191"/>
<path d="M388.691 424.621H304.731C304.699 424.621 304.668 424.615 304.638 424.603C304.609 424.591 304.582 424.573 304.56 424.551C304.537 424.529 304.52 424.502 304.507 424.473C304.495 424.444 304.489 424.412 304.489 424.381C304.489 424.349 304.495 424.318 304.507 424.289C304.52 424.259 304.537 424.233 304.56 424.211C304.582 424.188 304.609 424.171 304.638 424.159C304.668 424.147 304.699 424.141 304.731 424.141H388.691C388.754 424.141 388.815 424.167 388.859 424.212C388.904 424.257 388.929 424.317 388.929 424.381C388.929 424.444 388.904 424.505 388.859 424.55C388.815 424.595 388.754 424.62 388.691 424.621Z" fill="#919191"/>
<path d="M388.691 430.378H304.731C304.699 430.378 304.668 430.372 304.638 430.36C304.609 430.348 304.582 430.331 304.56 430.308C304.537 430.286 304.52 430.259 304.507 430.23C304.495 430.201 304.489 430.17 304.489 430.138C304.489 430.106 304.495 430.075 304.507 430.046C304.52 430.017 304.537 429.99 304.56 429.968C304.582 429.946 304.609 429.928 304.638 429.916C304.668 429.904 304.699 429.898 304.731 429.898H388.691C388.754 429.899 388.815 429.924 388.859 429.969C388.904 430.014 388.929 430.075 388.929 430.138C388.929 430.201 388.904 430.262 388.859 430.307C388.815 430.352 388.754 430.378 388.691 430.378Z" fill="#919191"/>
<path d="M388.691 436.135H304.731C304.699 436.135 304.668 436.129 304.638 436.117C304.609 436.105 304.582 436.088 304.56 436.066C304.537 436.043 304.52 436.017 304.507 435.987C304.495 435.958 304.489 435.927 304.489 435.895C304.489 435.864 304.495 435.832 304.507 435.803C304.52 435.774 304.537 435.747 304.56 435.725C304.582 435.703 304.609 435.685 304.638 435.673C304.668 435.661 304.699 435.655 304.731 435.655H388.691C388.754 435.656 388.815 435.681 388.859 435.726C388.904 435.771 388.929 435.832 388.929 435.895C388.929 435.959 388.904 436.019 388.859 436.064C388.815 436.109 388.754 436.135 388.691 436.135Z" fill="#919191"/>
<path d="M283.362 208.125V9.29261C283.365 7.03338 284.263 4.86743 285.861 3.26992C287.458 1.6724 289.624 0.77378 291.883 0.77121H449.056C451.315 0.773794 453.481 1.67242 455.078 3.26993C456.676 4.86744 457.574 7.03339 457.577 9.29261V208.125C457.575 210.384 456.676 212.55 455.078 214.148C453.481 215.745 451.315 216.644 449.056 216.646H291.883C289.624 216.644 287.458 215.745 285.861 214.148C284.263 212.55 283.365 210.384 283.362 208.125ZM291.883 2.66486C290.126 2.66682 288.442 3.36574 287.199 4.60825C285.957 5.85077 285.258 7.53542 285.256 9.29261V208.125C285.258 209.882 285.957 211.567 287.199 212.809C288.442 214.052 290.126 214.751 291.883 214.753H449.056C450.813 214.751 452.498 214.052 453.74 212.809C454.983 211.567 455.681 209.882 455.683 208.125V9.29261C455.681 7.53543 454.983 5.85077 453.74 4.60825C452.498 3.36574 450.813 2.66683 449.056 2.66486H291.883Z" fill="#3F72AF"/>
<path d="M379.283 92.0842V51.2577C379.284 50.128 379.734 49.045 380.532 48.2463C381.331 47.4475 382.414 46.9982 383.544 46.9969H418.141C419.27 46.9982 420.353 47.4475 421.152 48.2463C421.951 49.045 422.4 50.128 422.401 51.2577V92.0842C422.4 93.2138 421.951 94.2968 421.152 95.0956C420.353 95.8943 419.27 96.3437 418.141 96.3449H383.544C382.414 96.3437 381.331 95.8943 380.532 95.0956C379.734 94.2968 379.284 93.2138 379.283 92.0842Z" fill="#3F72AF"/>
<path d="M312.059 111.021V70.1941C312.06 69.0645 312.509 67.9815 313.308 67.1827C314.107 66.384 315.19 65.9347 316.32 65.9334H350.916C352.046 65.9347 353.129 66.384 353.928 67.1827C354.727 67.9815 355.176 69.0645 355.177 70.1941V111.021C355.176 112.15 354.727 113.233 353.928 114.032C353.129 114.831 352.046 115.28 350.916 115.281H316.32C315.19 115.28 314.107 114.831 313.308 114.032C312.509 113.233 312.06 112.15 312.059 111.021Z" fill="#919191"/>
<path d="M366.028 168.777V127.95C366.029 126.821 366.478 125.738 367.277 124.939C368.076 124.14 369.159 123.691 370.288 123.689H404.885C406.015 123.691 407.098 124.14 407.897 124.939C408.695 125.738 409.145 126.821 409.146 127.95V168.777C409.145 169.906 408.695 170.989 407.897 171.788C407.098 172.587 406.015 173.036 404.885 173.037H370.288C369.159 173.036 368.076 172.587 367.277 171.788C366.478 170.989 366.029 169.906 366.028 168.777Z" fill="#2E9FE1"/>
<path d="M572.776 355.433H537.179C536.842 355.432 536.508 355.51 536.205 355.659L527.221 360.157C526.925 360.283 526.673 360.493 526.496 360.761C526.318 361.029 526.224 361.343 526.224 361.664C526.224 361.985 526.318 362.299 526.496 362.567C526.673 362.835 526.925 363.045 527.221 363.171L536.205 367.669C536.508 367.818 536.842 367.895 537.179 367.895H572.776C573.267 367.924 573.749 367.758 574.118 367.433C574.487 367.109 574.713 366.652 574.748 366.162V357.166C574.713 356.676 574.487 356.219 574.118 355.895C573.749 355.57 573.267 355.404 572.776 355.433Z" fill="#3F3D56"/>
<path d="M574.748 357.166V366.162C574.713 366.652 574.487 367.109 574.118 367.433C573.749 367.758 573.267 367.923 572.777 367.895H565.685V355.433H572.777C573.267 355.404 573.749 355.57 574.118 355.895C574.487 356.219 574.714 356.676 574.748 357.166Z" fill="#3F72AF"/>
<path d="M572.509 288.135C574.121 287.44 575.862 287.092 577.618 287.116C579.374 287.14 581.105 287.535 582.698 288.275C584.291 289.014 585.709 290.082 586.861 291.408C588.012 292.734 588.87 294.288 589.379 295.969C589.537 296.502 589.658 297.045 589.741 297.595L639.521 322.28L651.041 314.645L665.375 331.147L647.785 345.433C645.67 347.138 643.061 348.115 640.346 348.22C637.632 348.325 634.956 347.551 632.715 346.015L582.209 311.088C581.834 311.247 581.45 311.387 581.06 311.507C579.378 312.016 577.609 312.163 575.867 311.94C574.125 311.717 572.45 311.128 570.951 310.213C569.452 309.297 568.164 308.075 567.171 306.626C566.177 305.178 565.501 303.536 565.186 301.808C565.093 301.307 565.032 300.8 565.002 300.291C564.862 297.741 565.506 295.209 566.848 293.035C568.19 290.862 570.166 289.152 572.509 288.135Z" fill="#FFB8B8"/>
<path d="M676.19 440.119H621.797C621.797 441.682 565.739 442.951 565.739 442.951C564.859 443.614 564.057 444.374 563.349 445.217C561.22 447.757 560.056 450.967 560.063 454.281V456.547C560.064 460.302 561.557 463.904 564.212 466.559C566.868 469.215 570.469 470.707 574.225 470.709H676.19C679.945 470.705 683.545 469.212 686.2 466.557C688.855 463.902 690.349 460.302 690.352 456.547V454.281C690.347 450.526 688.853 446.927 686.198 444.273C683.543 441.618 679.944 440.124 676.19 440.119Z" fill="#3F3D56"/>
<path d="M617.023 565.314H631.752V470.146H617.023V565.314Z" fill="#3F3D56"/>
<path d="M575.104 564.796C575.104 566.388 597.423 565.412 624.954 565.412C652.485 565.412 674.804 566.388 674.804 564.796C674.804 563.205 652.485 550.585 624.954 550.585C597.423 550.585 575.104 563.205 575.104 564.796Z" fill="#3F3D56"/>
<path d="M588.4 553.642L574.511 553.641L567.903 517.616L588.402 517.618L588.4 553.642Z" fill="#FFB8B8"/>
<path d="M591.943 567.105L547.156 567.104V566.537C547.156 564.248 547.607 561.981 548.483 559.866C549.359 557.751 550.644 555.83 552.262 554.211C553.881 552.592 555.803 551.308 557.918 550.432C560.033 549.556 562.299 549.105 564.589 549.106H564.59L591.943 549.107L591.943 567.105Z" fill="#2F2E41"/>
<path d="M567.626 531.302L539.936 469.208C537.624 463.975 537.368 458.062 539.22 452.649C541.071 447.235 544.894 442.718 549.927 439.996L609.988 407.789L637.395 405.458L662.677 403.16L662.859 403.468C663.092 403.862 668.528 413.251 664.854 423.546C662.067 431.355 654.817 437.455 643.306 441.676C616.439 451.527 585.402 459.947 573.306 463.109C572.771 463.245 572.271 463.494 571.84 463.837C571.408 464.181 571.054 464.612 570.8 465.102C570.547 465.587 570.396 466.119 570.357 466.665C570.319 467.21 570.394 467.758 570.578 468.273L596.303 526.07C596.572 526.803 596.669 527.588 596.586 528.365C596.503 529.141 596.244 529.888 595.827 530.548C595.41 531.208 594.847 531.763 594.181 532.171C593.515 532.579 592.765 532.829 591.988 532.901L572.765 534.301C572.602 534.316 572.44 534.324 572.278 534.324C571.294 534.324 570.33 534.038 569.505 533.502C568.679 532.966 568.027 532.202 567.626 531.302Z" fill="#2F2E41"/>
<path d="M595.198 553.642L581.309 553.641L574.7 517.616L595.2 517.618L595.198 553.642Z" fill="#FFB8B8"/>
<path d="M598.74 567.105L553.954 567.104V566.537C553.954 564.248 554.405 561.981 555.281 559.866C556.157 557.751 557.441 555.83 559.06 554.211C560.679 552.592 562.6 551.308 564.715 550.432C566.83 549.556 569.097 549.105 571.386 549.106H571.387L598.741 549.107L598.74 567.105Z" fill="#2F2E41"/>
<path d="M575.557 534.701L547.866 472.607C545.554 467.373 545.299 461.461 547.15 456.048C549.002 450.634 552.825 446.116 557.857 443.395L617.919 411.188L645.326 408.857L670.607 406.559L670.79 406.867C671.023 407.261 676.459 416.65 672.784 426.945C669.997 434.754 662.748 440.854 651.237 445.074C624.37 454.926 593.333 463.345 581.236 466.508C580.702 466.644 580.202 466.893 579.77 467.236C579.339 467.58 578.984 468.011 578.731 468.501C578.477 468.986 578.326 469.518 578.288 470.063C578.25 470.609 578.325 471.157 578.509 471.672L604.234 529.469C604.503 530.202 604.599 530.987 604.517 531.763C604.434 532.54 604.174 533.287 603.757 533.947C603.34 534.607 602.777 535.162 602.112 535.57C601.446 535.978 600.696 536.228 599.918 536.3L580.696 537.7C580.533 537.715 580.37 537.723 580.209 537.723C579.224 537.723 578.261 537.437 577.435 536.901C576.61 536.364 575.957 535.601 575.557 534.701Z" fill="#2F2E41"/>
<path d="M561.755 345.011C550.119 329.533 540.92 312.366 534.479 294.106C534.105 293.013 534.132 291.824 534.554 290.75C534.975 289.675 535.764 288.785 536.78 288.238L576.598 266.902C577.242 266.555 577.957 266.358 578.689 266.329C579.42 266.299 580.149 266.437 580.819 266.731C581.502 267.028 582.108 267.476 582.591 268.042C583.074 268.609 583.422 269.278 583.608 269.999C588.242 287.595 596.954 303.853 609.037 317.459C609.535 318.012 609.899 318.672 610.103 319.388C610.307 320.104 610.345 320.857 610.214 321.59C610.088 322.311 609.799 322.994 609.369 323.586C608.939 324.179 608.379 324.666 607.733 325.009L567.915 346.345C566.897 346.888 565.719 347.052 564.591 346.807C563.462 346.563 562.458 345.927 561.755 345.011Z" fill="#919191"/>
<path d="M564.472 342.969C564.686 343.237 564.987 343.421 565.322 343.49C565.658 343.559 566.007 343.509 566.31 343.349L606.128 322.013C606.321 321.912 606.488 321.768 606.617 321.592C606.745 321.415 606.831 321.212 606.867 320.997C606.909 320.77 606.897 320.536 606.833 320.315C606.769 320.093 606.655 319.889 606.499 319.719C594.059 305.713 585.091 288.976 580.32 270.861C580.265 270.637 580.158 270.429 580.009 270.253C579.86 270.077 579.673 269.938 579.461 269.847C579.262 269.757 579.044 269.716 578.826 269.725C578.608 269.734 578.394 269.793 578.203 269.899L538.386 291.234C538.084 291.397 537.849 291.66 537.721 291.978C537.593 292.296 537.58 292.649 537.684 292.975C544.01 310.909 553.044 327.769 564.472 342.969Z" fill="#EEE5E9"/>
<path d="M694.036 339.32L662.852 351.17L655.238 330.021C654.227 327.213 654.242 324.138 655.279 321.339C656.316 318.541 658.308 316.199 660.905 314.727C663.532 313.239 666.604 312.738 669.568 313.317C672.531 313.895 675.19 315.515 677.064 317.882L694.036 339.32Z" fill="#3F72AF"/>
<path d="M614.718 423.113C614.062 422.648 613.512 422.05 613.105 421.356C612.698 420.663 612.443 419.891 612.357 419.092C608.363 381.807 611.145 352.629 620.861 329.889C622.572 325.967 625.15 322.484 628.401 319.702C631.652 316.919 635.491 314.91 639.631 313.825L664.838 312.552L664.969 312.615C670.657 315.401 675.296 319.946 678.198 325.577C681.099 331.207 682.11 337.622 681.078 343.872C672.971 365.243 666.182 387.493 671.359 405.443C671.576 406.193 671.64 406.98 671.545 407.755C671.451 408.531 671.201 409.279 670.811 409.956C670.432 410.61 669.924 411.179 669.317 411.629C668.71 412.079 668.017 412.4 667.281 412.572L619.268 423.993C618.491 424.178 617.683 424.195 616.898 424.044C616.114 423.892 615.37 423.574 614.718 423.113Z" fill="#3F72AF"/>
<path d="M656.426 303.137C671.794 303.137 684.252 290.679 684.252 275.311C684.252 259.943 671.794 247.484 656.426 247.484C641.058 247.484 628.599 259.943 628.599 275.311C628.599 290.679 641.058 303.137 656.426 303.137Z" fill="#FFB8B8"/>
<path d="M579.212 297.35L557.526 306.923C556.701 307.286 555.766 307.307 554.926 306.981C554.085 306.656 553.409 306.01 553.044 305.186L552.508 303.971C552.144 303.146 552.124 302.211 552.449 301.371C552.775 300.531 553.42 299.854 554.244 299.489L575.931 289.916C576.756 289.553 577.691 289.532 578.531 289.858C579.371 290.183 580.048 290.829 580.413 291.653L580.949 292.868C581.312 293.693 581.333 294.628 581.007 295.468C580.682 296.308 580.036 296.985 579.212 297.35Z" fill="#919191"/>
<path d="M587.143 312.078L565.456 321.651C564.631 322.014 563.696 322.035 562.856 321.71C562.016 321.384 561.339 320.738 560.974 319.914L560.438 318.699C560.075 317.875 560.054 316.94 560.38 316.099C560.705 315.259 561.351 314.582 562.175 314.217L583.861 304.645C584.686 304.282 585.621 304.261 586.461 304.586C587.302 304.912 587.978 305.557 588.343 306.381L588.88 307.596C589.243 308.421 589.263 309.356 588.938 310.197C588.612 311.037 587.967 311.714 587.143 312.078Z" fill="#919191"/>
<path d="M603.867 369.606L555.519 331.464C555.134 331.6 554.742 331.715 554.345 331.811C552.639 332.21 550.868 332.246 549.146 331.915C547.425 331.585 545.793 330.897 544.355 329.894C542.908 328.891 541.692 327.591 540.788 326.08C539.884 324.569 539.313 322.882 539.114 321.133C538.789 318.336 539.42 315.512 540.902 313.119C542.385 310.725 544.633 308.903 547.281 307.947C548.934 307.355 550.694 307.118 552.445 307.252C554.195 307.386 555.898 307.889 557.441 308.728C558.984 309.566 560.333 310.721 561.399 312.116C562.464 313.512 563.223 315.117 563.625 316.827C563.75 317.369 563.837 317.918 563.885 318.472L612.014 346.238L623.991 339.342L637.259 356.712L618.663 369.967C616.486 371.506 613.87 372.302 611.205 372.237C608.54 372.172 605.967 371.249 603.867 369.606Z" fill="#FFB8B8"/>
<path d="M643.159 362.122L615.573 343.363L628.537 325.002C630.258 322.563 632.786 320.812 635.674 320.058C638.562 319.303 641.623 319.594 644.317 320.878C647.043 322.177 649.214 324.408 650.439 327.167C651.663 329.927 651.861 333.034 650.995 335.926L643.159 362.122Z" fill="#3F72AF"/>
<path d="M646.224 271.166C639.072 276.061 629.681 281.093 622.376 275.88C617.58 272.457 616.069 266.119 618.014 260.557C621.511 250.555 631.121 246.151 640.311 242.776C652.257 238.388 665.265 234.897 677.597 238.04C689.93 241.182 700.829 253.123 698.603 265.653C696.813 275.73 687.307 284.114 688.657 294.259C690.015 304.47 701.497 309.844 711.635 311.669C721.772 313.494 733.116 314.08 740.401 321.362C749.695 330.65 747.374 347.253 738.629 357.06C729.884 366.867 716.687 371.313 703.9 374.335C686.957 378.339 668.632 380.443 652.541 373.798C636.449 367.153 623.927 349.265 628.589 332.491C630.558 325.406 635.196 319.418 639.679 313.588C644.161 307.759 648.701 301.663 650.411 294.511C651.835 288.551 650.781 281.631 646.828 277.16C646.109 276.377 645.657 275.387 645.536 274.332C645.415 273.276 645.632 272.209 646.155 271.284L646.224 271.166Z" fill="#2F2E41"/>
<path d="M123.573 406.365C116.403 408.885 108.704 409.517 101.219 408.198C93.734 406.88 86.7145 403.656 80.8371 398.837C65.8686 386.273 61.1755 365.575 57.3569 346.409C53.592 327.514 49.8271 308.618 46.0623 289.722L69.7087 306.004C86.7139 317.713 104.102 329.797 115.876 346.757C127.651 363.717 132.79 386.869 123.33 405.221" fill="#3F72AF"/>
<path d="M121.552 474.997C123.945 457.564 126.406 439.907 124.727 422.287C123.236 406.638 118.462 391.354 108.743 378.822C103.584 372.183 97.306 366.494 90.1921 362.012C88.337 360.841 86.6296 363.781 88.4766 364.947C100.786 372.726 110.306 384.214 115.666 397.753C121.586 412.809 122.536 429.222 121.516 445.216C120.899 454.888 119.592 464.497 118.274 474.094C118.17 474.528 118.235 474.985 118.456 475.373C118.676 475.761 119.035 476.051 119.461 476.184C119.896 476.301 120.359 476.242 120.75 476.02C121.142 475.798 121.43 475.43 121.552 474.997Z" fill="#EEE5E9"/>
<path d="M98.4997 444.149C95.4245 448.823 91.1974 452.626 86.2256 455.192C81.2539 457.758 75.7052 459 70.114 458.799C55.7446 458.117 43.7652 448.088 32.9814 438.567L1.08521 410.405L22.1952 409.395C37.3763 408.668 52.949 407.991 67.4084 412.672C81.8679 417.354 95.2031 428.62 97.8471 443.587" fill="#3F72AF"/>
<path d="M128.316 485.019C116.796 464.636 103.434 441.982 79.5595 434.742C72.9211 432.735 65.9603 432.017 59.0519 432.624C56.8746 432.812 57.4183 436.168 59.5917 435.981C71.1716 435.019 82.7291 438.077 92.3186 444.639C101.546 450.92 108.731 459.653 114.812 468.913C118.537 474.585 121.874 480.498 125.211 486.403C126.277 488.29 129.395 486.928 128.316 485.019Z" fill="#EEE5E9"/>
<path d="M146.773 506.473C146.385 501.976 144.77 497.671 142.105 494.028C139.439 490.385 135.825 487.543 131.656 485.812V474.028H111.892V486.183C107.929 487.999 104.517 490.834 102.006 494.399C99.4954 497.963 97.9745 502.129 97.5988 506.473L92.9514 560.496H151.42L146.773 506.473Z" fill="#EEE5E9"/>
</g>
<defs>
<clipPath id="clip0_287_180">
<rect width="784" height="566.334" fill="white" transform="translate(0 0.77121)"/>
</clipPath>
</defs>
</svg>
