<svg width="56" height="56" viewBox="0 0 56 56" fill="none" xmlns="http://www.w3.org/2000/svg">
<mask id="mask0_358_1061" style="mask-type:alpha" maskUnits="userSpaceOnUse" x="0" y="0" width="56" height="56">
<rect width="55.3182" height="55.3182" fill="#D9D9D9"/>
</mask>
<g mask="url(#mask0_358_1061)">
<path d="M38.4921 35.7261L47.2508 28.2351L54.1656 28.8113L44.0239 37.6277L47.0203 50.7081L41.1428 47.1355L38.4921 35.7261ZM33.0755 18.9002L30.6554 13.2531L33.306 6.91455L38.6074 19.4188L33.0755 18.9002ZM16.9411 41.085L24.2016 36.7057L31.4621 41.1427L29.5605 32.8449L35.9567 27.3131L27.5437 26.564L24.2016 18.7273L20.8594 26.5064L12.4465 27.2555L18.8426 32.8449L16.9411 41.085ZM9.96868 50.7081L13.7142 34.516L1.15234 23.6252L17.7478 22.1847L24.2016 6.91455L30.6554 22.1847L47.2508 23.6252L34.689 34.516L38.4345 50.7081L24.2016 42.1223L9.96868 50.7081Z" fill="#3F72AF"/>
</g>
</svg>
