<svg width="29" height="29" viewBox="0 0 29 29" fill="none" xmlns="http://www.w3.org/2000/svg">
<mask id="mask0_220_77" style="mask-type:alpha" maskUnits="userSpaceOnUse" x="0" y="0" width="29" height="29">
<rect width="29" height="29" fill="#D9D9D9"/>
</mask>
<g mask="url(#mask0_220_77)">
<path d="M14.5 27.1877C13.05 25.8182 11.3885 24.771 9.51562 24.046C7.64271 23.321 5.67917 22.9585 3.625 22.9585V9.66683C5.65903 9.66683 7.6125 10.0344 9.48542 10.7694C11.3583 11.5045 13.0299 12.5668 14.5 13.9564C15.9701 12.5668 17.6417 11.5045 19.5146 10.7694C21.3875 10.0344 23.341 9.66683 25.375 9.66683V22.9585C23.3007 22.9585 21.3321 23.321 19.4693 24.046C17.6064 24.771 15.95 25.8182 14.5 27.1877ZM14.5 24.046C15.7688 23.0995 17.1181 22.3443 18.5479 21.7804C19.9778 21.2165 21.4479 20.8439 22.9583 20.6627V12.3252C21.4882 12.587 20.0432 13.1156 18.6234 13.9111C17.2036 14.7066 15.8292 15.7689 14.5 17.0981C13.1708 15.7689 11.7964 14.7066 10.3766 13.9111C8.95677 13.1156 7.51181 12.587 6.04167 12.3252V20.6627C7.55208 20.8439 9.02222 21.2165 10.4521 21.7804C11.8819 22.3443 13.2312 23.0995 14.5 24.046ZM14.5 10.8752C13.1708 10.8752 12.033 10.4019 11.0865 9.45537C10.1399 8.50884 9.66667 7.371 9.66667 6.04183C9.66667 4.71266 10.1399 3.57482 11.0865 2.62829C12.033 1.68176 13.1708 1.2085 14.5 1.2085C15.8292 1.2085 16.967 1.68176 17.9135 2.62829C18.8601 3.57482 19.3333 4.71266 19.3333 6.04183C19.3333 7.371 18.8601 8.50884 17.9135 9.45537C16.967 10.4019 15.8292 10.8752 14.5 10.8752ZM14.5 8.4585C15.1646 8.4585 15.7335 8.22186 16.2068 7.7486C16.68 7.27534 16.9167 6.70641 16.9167 6.04183C16.9167 5.37725 16.68 4.80832 16.2068 4.33506C15.7335 3.86179 15.1646 3.62516 14.5 3.62516C13.8354 3.62516 13.2665 3.86179 12.7932 4.33506C12.32 4.80832 12.0833 5.37725 12.0833 6.04183C12.0833 6.70641 12.32 7.27534 12.7932 7.7486C13.2665 8.22186 13.8354 8.4585 14.5 8.4585Z" fill="black"/>
</g>
</svg>
