<svg width="29" height="29" viewBox="0 0 29 29" fill="none" xmlns="http://www.w3.org/2000/svg">
<mask id="mask0_316_3416" style="mask-type:alpha" maskUnits="userSpaceOnUse" x="0" y="0" width="29" height="29">
<rect width="29" height="29" fill="#D9D9D9"/>
</mask>
<g mask="url(#mask0_316_3416)">
<path d="M14.5 27.1874C13.05 25.818 11.3885 24.7708 9.51562 24.0457C7.64271 23.3207 5.67917 22.9583 3.625 22.9583V9.66658C5.65903 9.66658 7.6125 10.0341 9.48542 10.7692C11.3583 11.5043 13.0299 12.5666 14.5 13.9562C15.9701 12.5666 17.6417 11.5043 19.5146 10.7692C21.3875 10.0341 23.341 9.66658 25.375 9.66658V22.9583C23.3007 22.9583 21.3321 23.3207 19.4693 24.0457C17.6064 24.7708 15.95 25.818 14.5 27.1874ZM14.5 24.0457C15.7688 23.0992 17.1181 22.344 18.5479 21.7801C19.9778 21.2162 21.4479 20.8437 22.9583 20.6624V12.3249C21.4882 12.5867 20.0432 13.1154 18.6234 13.9109C17.2036 14.7063 15.8292 15.7687 14.5 17.0978C13.1708 15.7687 11.7964 14.7063 10.3766 13.9109C8.95677 13.1154 7.51181 12.5867 6.04167 12.3249V20.6624C7.55208 20.8437 9.02222 21.2162 10.4521 21.7801C11.8819 22.344 13.2312 23.0992 14.5 24.0457ZM14.5 10.8749C13.1708 10.8749 12.033 10.4017 11.0865 9.45513C10.1399 8.5086 9.66667 7.37075 9.66667 6.04158C9.66667 4.71242 10.1399 3.57457 11.0865 2.62804C12.033 1.68152 13.1708 1.20825 14.5 1.20825C15.8292 1.20825 16.967 1.68152 17.9135 2.62804C18.8601 3.57457 19.3333 4.71242 19.3333 6.04158C19.3333 7.37075 18.8601 8.5086 17.9135 9.45513C16.967 10.4017 15.8292 10.8749 14.5 10.8749ZM14.5 8.45825C15.1646 8.45825 15.7335 8.22162 16.2068 7.74836C16.68 7.27509 16.9167 6.70617 16.9167 6.04158C16.9167 5.377 16.68 4.80808 16.2068 4.33481C15.7335 3.86155 15.1646 3.62492 14.5 3.62492C13.8354 3.62492 13.2665 3.86155 12.7932 4.33481C12.32 4.80808 12.0833 5.377 12.0833 6.04158C12.0833 6.70617 12.32 7.27509 12.7932 7.74836C13.2665 8.22162 13.8354 8.45825 14.5 8.45825Z" fill="black"/>
</g>
</svg>
