<svg width="50" height="50" viewBox="0 0 50 50" fill="none" xmlns="http://www.w3.org/2000/svg">
<mask id="mask0_465_2232" style="mask-type:alpha" maskUnits="userSpaceOnUse" x="0" y="0" width="50" height="50">
<rect width="50" height="50" fill="#D9D9D9"/>
</mask>
<g mask="url(#mask0_465_2232)">
<path d="M8.33366 8.33325L12.5003 16.6666H18.7503L14.5837 8.33325H18.7503L22.917 16.6666H29.167L25.0003 8.33325H29.167L33.3337 16.6666H39.5837L35.417 8.33325H41.667C42.8128 8.33325 43.7937 8.74124 44.6097 9.55721C45.4257 10.3732 45.8337 11.3541 45.8337 12.4999V37.4999C45.8337 38.6458 45.4257 39.6267 44.6097 40.4426C43.7937 41.2586 42.8128 41.6666 41.667 41.6666H8.33366C7.18783 41.6666 6.20692 41.2586 5.39095 40.4426C4.57498 39.6267 4.16699 38.6458 4.16699 37.4999V12.4999C4.16699 11.3541 4.57498 10.3732 5.39095 9.55721C6.20692 8.74124 7.18783 8.33325 8.33366 8.33325ZM8.33366 20.8333V37.4999H41.667V20.8333H8.33366Z" fill="#112D4E" fill-opacity="0.55"/>
</g>
</svg>
