<svg width="26" height="32" viewBox="0 0 26 32" fill="none" xmlns="http://www.w3.org/2000/svg">
<path d="M0.333374 27.0834V23.9167H3.50004V12.8334C3.50004 10.6431 4.15976 8.69689 5.47921 6.99481C6.79865 5.29273 8.51393 4.1778 10.625 3.65002V2.54169C10.625 1.88196 10.8559 1.3212 11.3177 0.859395C11.7796 0.39759 12.3403 0.166687 13 0.166687C13.6598 0.166687 14.2205 0.39759 14.6823 0.859395C15.1441 1.3212 15.375 1.88196 15.375 2.54169V3.65002C17.4862 4.1778 19.2014 5.29273 20.5209 6.99481C21.8403 8.69689 22.5 10.6431 22.5 12.8334V23.9167H25.6667V27.0834H0.333374ZM13 31.8334C12.1292 31.8334 11.3837 31.5233 10.7636 30.9031C10.1434 30.283 9.83337 29.5375 9.83337 28.6667H16.1667C16.1667 29.5375 15.8566 30.283 15.2365 30.9031C14.6164 31.5233 13.8709 31.8334 13 31.8334ZM6.66671 23.9167H19.3334V12.8334C19.3334 11.0917 18.7132 9.60071 17.473 8.36044C16.2327 7.12016 14.7417 6.50002 13 6.50002C11.2584 6.50002 9.7674 7.12016 8.52712 8.36044C7.28685 9.60071 6.66671 11.0917 6.66671 12.8334V23.9167Z" fill="#112D4E"/>
</svg>
