<svg width="16" height="16" viewBox="0 0 16 16" fill="none" xmlns="http://www.w3.org/2000/svg">
<path d="M7.11965 0.799805C9.03965 0.799805 10.4796 1.0398 11.4396 1.5998C12.4796 2.1598 12.9596 3.1198 12.9596 4.4798C12.9596 5.2798 12.7196 5.9998 12.3996 6.5598C12.2182 6.83335 11.9827 7.06678 11.7075 7.24567C11.4323 7.42455 11.1233 7.54508 10.7996 7.5998C11.257 7.70663 11.6908 7.89644 12.0796 8.1598C12.3996 8.3998 12.7196 8.7998 12.9596 9.19981C13.21 9.77929 13.3197 10.4098 13.2796 11.0398C13.3079 11.6178 13.1995 12.1943 12.9632 12.7225C12.7269 13.2507 12.3694 13.7157 11.9196 14.0798C10.7808 14.8932 9.39627 15.2887 7.99965 15.1998H2.63965V0.799805H7.11965ZM7.43965 6.4798C8.31965 6.4798 8.95965 6.3998 9.27965 6.0798C9.67965 5.8398 9.83965 5.3598 9.83965 4.8798C9.83965 4.3198 9.59965 3.9198 9.19965 3.6798C8.79965 3.4398 8.15965 3.2798 7.27965 3.2798H5.67965V6.4798H7.43965ZM5.67965 8.87981V12.7998H7.67965C8.55965 12.7998 9.27965 12.5598 9.59965 12.2398C9.99965 11.8398 10.1596 11.4398 10.1596 10.7998C10.1692 10.558 10.1237 10.3172 10.0267 10.0955C9.92974 9.87374 9.78371 9.67692 9.59965 9.5198C9.19965 9.1998 8.55965 9.03981 7.59965 9.03981H5.59965L5.67965 8.87981Z" fill="black"/>
</svg>
