<svg width="56" height="56" viewBox="0 0 56 56" fill="none" xmlns="http://www.w3.org/2000/svg">
<mask id="mask0_358_1079" style="mask-type:alpha" maskUnits="userSpaceOnUse" x="0" y="0" width="56" height="56">
<rect width="55.3182" height="55.3182" fill="#D9D9D9"/>
</mask>
<g mask="url(#mask0_358_1079)">
<path d="M22.5307 27.6591C21.1477 27.6591 19.9952 27.1405 19.0733 26.1033C18.1513 25.0661 17.7864 23.856 17.9784 22.473L18.7275 16.826C19.0349 14.6363 20.0337 12.8212 21.7239 11.3806C23.4142 9.94002 25.3926 9.21973 27.6591 9.21973C29.9256 9.21973 31.904 9.94002 33.5943 11.3806C35.2846 12.8212 36.2834 14.6363 36.5907 16.826L37.3398 22.473C37.5319 23.856 37.1669 25.0661 36.245 26.1033C35.323 27.1405 34.1705 27.6591 32.7876 27.6591H22.5307ZM22.5307 23.0493H32.7876L32.0385 17.5175C31.8848 16.4418 31.395 15.5583 30.5691 14.8668C29.7432 14.1753 28.7732 13.8296 27.6591 13.8296C26.5451 13.8296 25.5751 14.1753 24.7492 14.8668C23.9232 15.5583 23.4334 16.4418 23.2798 17.5175L22.5307 23.0493ZM9.21973 46.0985V39.6447C9.21973 38.3386 9.55586 37.1381 10.2281 36.0433C10.9004 34.9484 11.7936 34.1129 12.9076 33.5367C15.2894 32.3458 17.7095 31.4526 20.1681 30.8572C22.6267 30.2618 25.1237 29.964 27.6591 29.964C30.1945 29.964 32.6915 30.2618 35.1501 30.8572C37.6087 31.4526 40.0289 32.3458 42.4106 33.5367C43.5247 34.1129 44.4178 34.9484 45.0901 36.0433C45.7624 37.1381 46.0985 38.3386 46.0985 39.6447V46.0985H9.21973ZM13.8296 41.4887H41.4887V39.6447C41.4887 39.2222 41.383 38.838 41.1717 38.4923C40.9605 38.1465 40.6819 37.8776 40.3362 37.6855C38.2618 36.6483 36.1681 35.8704 34.0553 35.3518C31.9424 34.8332 29.8104 34.5739 27.6591 34.5739C25.5079 34.5739 23.3758 34.8332 21.263 35.3518C19.1501 35.8704 17.0565 36.6483 14.982 37.6855C14.6363 37.8776 14.3578 38.1465 14.1465 38.4923C13.9352 38.838 13.8296 39.2222 13.8296 39.6447V41.4887Z" fill="#3F72AF"/>
</g>
</svg>
