<svg width="30" height="31" viewBox="0 0 30 31" fill="none" xmlns="http://www.w3.org/2000/svg">
<mask id="mask0_324_4938" style="mask-type:alpha" maskUnits="userSpaceOnUse" x="0" y="0" width="30" height="31">
<rect y="0.176636" width="30" height="30" fill="#D9D9D9"/>
</mask>
<g mask="url(#mask0_324_4938)">
<path d="M15 15.1766C13.625 15.1766 12.4479 14.6871 11.4688 13.7079C10.4896 12.7287 10 11.5516 10 10.1766C10 8.80164 10.4896 7.62455 11.4688 6.64539C12.4479 5.66622 13.625 5.17664 15 5.17664C16.375 5.17664 17.5521 5.66622 18.5312 6.64539C19.5104 7.62455 20 8.80164 20 10.1766C20 11.5516 19.5104 12.7287 18.5312 13.7079C17.5521 14.6871 16.375 15.1766 15 15.1766ZM5 25.1766V21.6766C5 20.9683 5.18229 20.3173 5.54688 19.7235C5.91146 19.1298 6.39583 18.6766 7 18.3641C8.29167 17.7183 9.60417 17.2339 10.9375 16.911C12.2708 16.5881 13.625 16.4266 15 16.4266C16.375 16.4266 17.7292 16.5881 19.0625 16.911C20.3958 17.2339 21.7083 17.7183 23 18.3641C23.6042 18.6766 24.0885 19.1298 24.4531 19.7235C24.8177 20.3173 25 20.9683 25 21.6766V25.1766H5ZM7.5 22.6766H22.5V21.6766C22.5 21.4475 22.4427 21.2391 22.3281 21.0516C22.2135 20.8641 22.0625 20.7183 21.875 20.6141C20.75 20.0516 19.6146 19.6298 18.4688 19.3485C17.3229 19.0673 16.1667 18.9266 15 18.9266C13.8333 18.9266 12.6771 19.0673 11.5312 19.3485C10.3854 19.6298 9.25 20.0516 8.125 20.6141C7.9375 20.7183 7.78646 20.8641 7.67188 21.0516C7.55729 21.2391 7.5 21.4475 7.5 21.6766V22.6766ZM15 12.6766C15.6875 12.6766 16.276 12.4318 16.7656 11.9423C17.2552 11.4527 17.5 10.8641 17.5 10.1766C17.5 9.48914 17.2552 8.90059 16.7656 8.41101C16.276 7.92143 15.6875 7.67664 15 7.67664C14.3125 7.67664 13.724 7.92143 13.2344 8.41101C12.7448 8.90059 12.5 9.48914 12.5 10.1766C12.5 10.8641 12.7448 11.4527 13.2344 11.9423C13.724 12.4318 14.3125 12.6766 15 12.6766Z" fill="#1C1B1F"/>
</g>
</svg>
