<svg width="40" height="40" viewBox="0 0 40 40" fill="none" xmlns="http://www.w3.org/2000/svg">
<mask id="mask0_287_320" style="mask-type:alpha" maskUnits="userSpaceOnUse" x="0" y="0" width="40" height="40">
<rect width="40" height="40" fill="#D9D9D9"/>
</mask>
<g mask="url(#mask0_287_320)">
<path d="M20 36.6667C16.1388 35.6945 12.9513 33.4792 10.4375 30.0208C7.92357 26.5625 6.66663 22.7222 6.66663 18.5V8.33334L20 3.33334L33.3333 8.33334V18.5C33.3333 22.7222 32.0763 26.5625 29.5625 30.0208C27.0486 33.4792 23.8611 35.6945 20 36.6667ZM20 33.1667C22.8888 32.25 25.2777 30.4167 27.1666 27.6667C29.0555 24.9167 30 21.8611 30 18.5V10.625L20 6.87501L9.99996 10.625V18.5C9.99996 21.8611 10.9444 24.9167 12.8333 27.6667C14.7222 30.4167 17.1111 32.25 20 33.1667ZM16.6666 26.6667H23.3333C23.8055 26.6667 24.2013 26.507 24.5208 26.1875C24.8402 25.8681 25 25.4722 25 25V20C25 19.5278 24.8402 19.132 24.5208 18.8125C24.2013 18.4931 23.8055 18.3333 23.3333 18.3333V16.6667C23.3333 15.75 23.0069 14.9653 22.3541 14.3125C21.7013 13.6597 20.9166 13.3333 20 13.3333C19.0833 13.3333 18.2986 13.6597 17.6458 14.3125C16.993 14.9653 16.6666 15.75 16.6666 16.6667V18.3333C16.1944 18.3333 15.7986 18.4931 15.4791 18.8125C15.1597 19.132 15 19.5278 15 20V25C15 25.4722 15.1597 25.8681 15.4791 26.1875C15.7986 26.507 16.1944 26.6667 16.6666 26.6667ZM18.3333 18.3333V16.6667C18.3333 16.1945 18.493 15.7986 18.8125 15.4792C19.1319 15.1597 19.5277 15 20 15C20.4722 15 20.868 15.1597 21.1875 15.4792C21.5069 15.7986 21.6666 16.1945 21.6666 16.6667V18.3333H18.3333Z" fill="#112D4E"/>
</g>
</svg>
