<svg width="35" height="31" viewBox="0 0 35 31" fill="none" xmlns="http://www.w3.org/2000/svg">
<path d="M17.3457 30.9167L24.3603 12.4167H27.5978L34.6123 30.9167H31.3748L29.7561 26.2146H22.279L20.5832 30.9167H17.3457ZM23.204 23.5167H28.754L26.0561 15.8855H25.9019L23.204 23.5167ZM5.1665 26.2917L3.00817 24.1334L10.7936 16.348C9.8172 15.2688 8.96286 14.1511 8.23057 12.9948C7.49828 11.8386 6.86234 10.6181 6.32275 9.33337H9.56025C10.0228 10.2584 10.5174 11.0934 11.0441 11.8386C11.5708 12.5837 12.2068 13.3674 12.9519 14.1896C14.0825 12.9563 15.0203 11.6908 15.7655 10.3933C16.5106 9.0957 17.1401 7.71462 17.654 6.25004H0.541504V3.16671H11.3332V0.083374H14.4165V3.16671H25.2082V6.25004H20.7373C20.1978 8.07435 19.4655 9.84726 18.5405 11.5688C17.6155 13.2903 16.4721 14.9091 15.1103 16.425L18.8103 20.2021L17.654 23.3625L12.8748 18.5834L5.1665 26.2917Z" fill="#112D4E"/>
</svg>
