<svg width="25" height="33" viewBox="0 0 25 33" fill="none" xmlns="http://www.w3.org/2000/svg">
<path d="M8.91595 18.1209L10.2649 13.7271L6.71908 10.875H11.1128L12.5003 6.55837L13.8878 10.875H18.2816L14.6972 13.7271L16.0462 18.1209L12.5003 15.3844L8.91595 18.1209ZM3.25033 32.4584V20.549C2.27394 19.4698 1.51595 18.2365 0.976367 16.849C0.436784 15.4615 0.166992 13.9841 0.166992 12.4167C0.166992 8.97365 1.36178 6.05733 3.75137 3.66775C6.14095 1.27817 9.05727 0.083374 12.5003 0.083374C15.9434 0.083374 18.8597 1.27817 21.2493 3.66775C23.6389 6.05733 24.8337 8.97365 24.8337 12.4167C24.8337 13.9841 24.5639 15.4615 24.0243 16.849C23.4847 18.2365 22.7267 19.4698 21.7503 20.549V32.4584L12.5003 29.375L3.25033 32.4584ZM12.5003 21.6667C15.0698 21.6667 17.2538 20.7674 19.0524 18.9688C20.851 17.1702 21.7503 14.9862 21.7503 12.4167C21.7503 9.84726 20.851 7.66324 19.0524 5.86462C17.2538 4.06601 15.0698 3.16671 12.5003 3.16671C9.93088 3.16671 7.74685 4.06601 5.94824 5.86462C4.14963 7.66324 3.25033 9.84726 3.25033 12.4167C3.25033 14.9862 4.14963 17.1702 5.94824 18.9688C7.74685 20.7674 9.93088 21.6667 12.5003 21.6667ZM6.33366 27.8719L12.5003 26.2917L18.667 27.8719V23.0927C17.7677 23.6066 16.7977 24.0113 15.7571 24.3068C14.7165 24.6023 13.6309 24.75 12.5003 24.75C11.3698 24.75 10.2842 24.6023 9.24356 24.3068C8.20293 24.0113 7.23296 23.6066 6.33366 23.0927V27.8719Z" fill="#112D4E"/>
</svg>
