<svg width="46" height="46" viewBox="0 0 46 46" fill="none" xmlns="http://www.w3.org/2000/svg">
<mask id="mask0_316_3437" style="mask-type:alpha" maskUnits="userSpaceOnUse" x="0" y="0" width="46" height="46">
<rect width="46" height="46" fill="#D9D9D9"/>
</mask>
<g mask="url(#mask0_316_3437)">
<path d="M18.5441 26.2585L20.2212 20.796L15.8128 17.2502H21.2753L23.0003 11.8835L24.7253 17.2502H30.1878L25.7316 20.796L27.4087 26.2585L23.0003 22.8564L18.5441 26.2585ZM11.5003 44.0835V29.2772C10.2864 27.9356 9.34408 26.4022 8.67324 24.6772C8.00241 22.9522 7.66699 21.1154 7.66699 19.1668C7.66699 14.8863 9.15241 11.2606 12.1232 8.28975C15.0941 5.31891 18.7198 3.8335 23.0003 3.8335C27.2809 3.8335 30.9066 5.31891 33.8774 8.28975C36.8482 11.2606 38.3337 14.8863 38.3337 19.1668C38.3337 21.1154 37.9982 22.9522 37.3274 24.6772C36.6566 26.4022 35.7142 27.9356 34.5003 29.2772V44.0835L23.0003 40.2502L11.5003 44.0835ZM23.0003 30.6668C26.1948 30.6668 28.91 29.5488 31.1462 27.3127C33.3823 25.0766 34.5003 22.3613 34.5003 19.1668C34.5003 15.9724 33.3823 13.2571 31.1462 11.021C28.91 8.78488 26.1948 7.66683 23.0003 7.66683C19.8059 7.66683 17.0906 8.78488 14.8545 11.021C12.6184 13.2571 11.5003 15.9724 11.5003 19.1668C11.5003 22.3613 12.6184 25.0766 14.8545 27.3127C17.0906 29.5488 19.8059 30.6668 23.0003 30.6668ZM15.3337 38.3814L23.0003 36.4168L30.667 38.3814V32.4397C29.5489 33.0786 28.343 33.5818 27.0493 33.9491C25.7555 34.3165 24.4059 34.5002 23.0003 34.5002C21.5948 34.5002 20.2451 34.3165 18.9514 33.9491C17.6576 33.5818 16.4517 33.0786 15.3337 32.4397V38.3814Z" fill="#1C1B1F"/>
</g>
</svg>
