<svg width="56" height="56" viewBox="0 0 56 56" fill="none" xmlns="http://www.w3.org/2000/svg">
<mask id="mask0_358_977" style="mask-type:alpha" maskUnits="userSpaceOnUse" x="0" y="0" width="56" height="56">
<rect width="55.3182" height="55.3182" fill="#D9D9D9"/>
</mask>
<g mask="url(#mask0_358_977)">
<path d="M22.3002 31.5775L24.317 25.0084L19.0157 20.7443H25.5847L27.6591 14.2905L29.7336 20.7443H36.3026L30.9436 25.0084L32.9604 31.5775L27.6591 27.4862L22.3002 31.5775ZM13.8296 53.0133V35.2077C12.3698 33.5943 11.2365 31.7503 10.4298 29.6759C9.62309 27.6015 9.21973 25.3926 9.21973 23.0493C9.21973 17.9016 11.006 13.5414 14.5787 9.96881C18.1513 6.39618 22.5115 4.60986 27.6591 4.60986C32.8068 4.60986 37.1669 6.39618 40.7396 9.96881C44.3122 13.5414 46.0985 17.9016 46.0985 23.0493C46.0985 25.3926 45.6951 27.6015 44.8884 29.6759C44.0817 31.7503 42.9484 33.5943 41.4887 35.2077V53.0133L27.6591 48.4034L13.8296 53.0133ZM27.6591 36.8788C31.5007 36.8788 34.766 35.5343 37.455 32.8452C40.1441 30.1561 41.4887 26.8908 41.4887 23.0493C41.4887 19.2077 40.1441 15.9424 37.455 13.2533C34.766 10.5642 31.5007 9.21971 27.6591 9.21971C23.8176 9.21971 20.5523 10.5642 17.8632 13.2533C15.1741 15.9424 13.8296 19.2077 13.8296 23.0493C13.8296 26.8908 15.1741 30.1561 17.8632 32.8452C20.5523 35.5343 23.8176 36.8788 27.6591 36.8788ZM18.4394 46.1561L27.6591 43.7936L36.8788 46.1561V39.0109C35.5343 39.7792 34.0841 40.3842 32.5283 40.826C30.9724 41.2678 29.3494 41.4886 27.6591 41.4886C25.9688 41.4886 24.3458 41.2678 22.79 40.826C21.2341 40.3842 19.784 39.7792 18.4394 39.0109V46.1561Z" fill="#3F72AF"/>
</g>
</svg>
